<?xml version="1.0" encoding="UTF-8"?>
<svg id="Layer_2" data-name="Layer 2" xmlns="http://www.w3.org/2000/svg" viewBox="0 0 1214.65 1177.23">
  <defs>
    <style>
      .cls-1 {
        fill: #fff;
      }

      .cls-2 {
        fill: #8195b8;
      }

      .cls-3 {
        fill: #242c57;
      }

      .cls-4 {
        fill: #1a435d;
      }

      .cls-5 {
        fill: #94c3d3;
      }

      .cls-6 {
        fill: #2b2e3d;
      }
    </style>
  </defs>
  <g id="Layer_1-2" data-name="Layer 1">
    <g>
      <path class="cls-5" d="m552.42,1173.53c73.71-45.29,122.05-144.9,139.48-203.36-22.36-12-121.88-66.9-149.22-82.43-13.58-33.37-28.57-66.26-49.24-95.86-13.87-19.88-30.42-37.55-47.99-54.2-18.37-17.41-37.43-34.1-56.24-51.03-8.88-7.99-17.76-15.99-26.64-23.98-15.1-17.75-30.19-35.5-45.29-53.25.53-.62.7-1.54-.04-2.29-5.09-5.13-10.11-10.34-15.12-15.54-3.47-4.08-6.95-8.17-10.42-12.25l-6.74-7.93c-1.12-1.32-2.25-2.64-3.37-3.96-.56-.66-1.15-1.31-1.69-1.98-.05-.06-.31-.39-.61-.77,1.03.39,2.42-.11,2.39-1.54-.08-3.92-5.63-3.31-6.22.03-11.93-13.08-23.65-26.35-35.1-39.86-25.51-30.11-49.78-61.26-72.73-93.36,0-.03,0-.05-.01-.08l5.77-17.23c9.78-29.22,19.55-58.43,29.33-87.65,4.91-14.68,9.82-29.35,14.73-44.03,4.13-12.35,8.35-24.67,11.3-37.37,5.2-22.37,7.09-47.93-6.38-67.9-6.24-9.25-17.31-18.17-28.97-13-5.39,2.39-9.3,7.12-12.82,11.68-4.28,5.55-8.46,11.18-12.61,16.83-16.84,22.92-32.79,46.49-47.8,70.64-15.02,24.15-29.1,48.88-42.21,74.12-13.16,25.34-26.26,51.16-35.44,78.26-8.97,26.48-13.31,54.68-7.21,82.29,5.26,23.79,16.57,54.87,29.58,78.59-.44,12.68.58,12.74,1.38,25.4,1.43,22.83,2.47,45.56,1.7,68.45-1.57,46.26-8.5,92.14-17.26,137.52-4.87,25.18-10.3,50.25-15.76,75.31-.81-.18-1.7.13-1.96,1.17-7.19,29.6-.23,63.25,19.1,84.74,21.39,23.78,44.28,39.66,68.87,51.33,78.98,37.49,182.12,49.14,241.64,49.05,17.88,12.2,126.54,81.66,163.58,105.3,8,5.1,18.17,5.11,26.26.15Z"/>
      <g>
        <path class="cls-2" d="m261.81,808.96L175.01,33.78c-2.66-23.75,14.92-38.31,39.26-32.51l384.12,91.52c24.34,5.8,46.24,29.76,48.9,53.51l86.79,775.18c2.66,23.75-14.92,38.31-39.26,32.51l-384.12-91.52c-24.34-5.8-46.24-29.76-48.9-53.51Z"/>
        <path class="cls-6" d="m175.45,29.4c27.48,6.55,54.95,13.11,82.43,19.66,55.19,13.16,110.37,26.32,165.56,39.49,42.15,10.05,84.29,20.1,126.44,30.15,18.39,4.39,34.78,10.67,46.74,26.88,7.62,10.33,10.3,21.23,11.67,33.39,3.04,27.1,6.07,54.2,9.1,81.31,5.33,47.57,10.65,95.14,15.98,142.71,6.46,57.7,12.92,115.4,19.38,173.11,6.34,56.59,12.67,113.18,19.01,169.77,5.05,45.12,10.11,90.24,15.16,135.36,2.58,23.02,5.1,46.05,7.73,69.06.12,1.06.24,2.11.35,3.17.62,5.56,9.42,5.62,8.79,0-1.82-16.21-3.63-32.41-5.44-48.62-4.63-41.32-9.25-82.65-13.88-123.97-6.25-55.78-12.49-111.56-18.74-167.34-6.57-58.7-13.15-117.4-19.72-176.1-5.7-50.92-11.4-101.84-17.11-152.76-3.6-32.19-7.21-64.38-10.81-96.57-.63-5.65-1.2-11.31-1.9-16.95-3.41-27.76-25.9-51.42-52.73-58.26-31.55-8.04-63.38-15.12-95.05-22.67-56.21-13.41-112.42-26.81-168.63-40.22-38.67-9.22-77.35-18.45-116.02-27.67-2-.48-3.99-.95-5.99-1.43-5.5-1.31-7.85,7.16-2.34,8.48h0Z"/>
        <path class="cls-6" d="m245.14,238.63c-3.93-35.14-7.87-70.27-11.8-105.41-.73-6.53-2.16-13.63.8-19.81,5.14-10.74,17.09-10.26,26.98-7.95,19.82,4.64,39.61,9.44,59.41,14.15,21.72,5.17,43.51,8.37,55.39,30.38,7.43,13.78,6.74,33.19,8.43,48.35,2.43,21.74,4.87,43.49,7.3,65.23.46,4.12,1.06,8.26,1.39,12.39,1.34,16.79-10.57,24.32-26.16,21.09-20.72-4.29-41.26-9.83-61.84-14.73-8-1.91-16.06-3.65-24.03-5.72-18.36-4.78-33.25-20.16-36.03-39.14-.82-5.58-9.29-3.21-8.48,2.34,2.7,18.4,16.25,34.66,33.08,42.19,6.66,2.98,14.06,4.27,21.13,5.95,22.69,5.41,45.38,10.81,68.07,16.22,8.14,1.94,16.33,3.95,24.66,1.54,13.42-3.87,19.44-16.7,18.37-29.89-1.44-17.88-4-35.75-6-53.57-2.17-19.35-4.12-38.74-6.5-58.07-3.17-25.69-23.38-42.78-47.45-48.51-22.36-5.33-44.72-10.66-67.08-15.98-6.73-1.6-13.73-3.86-20.66-4.47-13.93-1.24-26.93,6.4-29.93,20.56-1.61,7.62.21,16.12,1.06,23.76,1.43,12.81,2.87,25.61,4.3,38.42,2.26,20.23,4.53,40.45,6.79,60.68.62,5.56,9.42,5.62,8.79,0Z"/>
        <path class="cls-3" d="m270.4,127.11c15.06,3.59,28.6,18.41,30.24,33.1,1.64,14.69-9.23,23.69-24.29,20.11-15.06-3.59-28.6-18.41-30.24-33.1-1.65-14.69,9.23-23.69,24.29-20.11Z"/>
        <path class="cls-3" d="m340.49,143.81c15.06,3.59,28.6,18.41,30.24,33.1,1.64,14.69-9.23,23.69-24.29,20.11-15.06-3.59-28.6-18.41-30.24-33.1-1.65-14.69,9.23-23.69,24.29-20.11Z"/>
        <path class="cls-3" d="m279.11,204.92c15.06,3.59,28.6,18.41,30.24,33.1,1.64,14.69-9.23,23.69-24.29,20.11-15.06-3.59-28.6-18.41-30.24-33.1-1.65-14.69,9.23-23.69,24.29-20.11Z"/>
        <path class="cls-1" d="m350.55,233.64c8.26,1.97,15.69,10.1,16.59,18.15.9,8.06-5.06,13-13.32,11.03-8.26-1.97-15.69-10.1-16.59-18.15-.9-8.06,5.06-13,13.32-11.03Z"/>
      </g>
      <path class="cls-5" d="m1199.6,830c-73.84-31.16-201.68-87.12-209.17-91.03-6.54-13.95-59.39-113.55-122.82-163.16-37.68-29.47-96.52-56.66-180.9-77.53l17.77,160.51c-15.22,1.11-36.38-.66-51.65-1.32-30.11-1.29-60.02-5.48-89.68-10.68-16.75-2.93-33.44-6.2-50.17-9.49-30.64-9.48-61.29-18.96-91.93-28.44-41.19-12.74-82.38-25.48-123.56-38.22-26.95-8.34-74.55-24.85-85.56,14.93-4.07,14.73-.19,30.47,8.37,42.82,2.89,4.16,6.2,7.94,9.75,11.48-1.14.06-2.28.11-3.42.23-12.23,1.27-25.03,5.38-33.17,15.1-6.99,8.34-9.96,19.33-9.75,30.08.23,11.78,4.31,22.9,10.68,32.72,3.08,4.74,6.59,9.14,10.38,13.29-8.8,9.39-14.85,21.26-17.22,33.99-1.5,8.06-1.57,16.34-.02,24.4.9,4.69,2.33,9.35,4.65,13.53,2.33,4.19,5.66,7.69,9.2,10.87,4.04,3.63,8.18,7.16,12.32,10.68-8.94,2.48-16.55,7.81-20.75,17.99-9.51,23.03,5.29,45.55,21.34,61.06,10.54,10.19,21.8,19.68,32.75,29.43,33.72,30,64.97,60.44,105.51,81.35,39.12,20.17,81.01,29.66,121.51,45.74,37.9,15.05,75.33,30.26,116.71,33.86,47.41,4.13,94.18-6.88,139.92-17.99,23.19-5.63,115.02-25.6,125.57-20.55,28.65,13.71,150.59,66.41,201.97,89.91,8.91,4.07,19.3,2.41,26.66-4.06,82.99-72.91,124.66-200.16,129.71-287.44.6-10.4-5.4-20.03-15-24.08Z"/>
      <path class="cls-4" d="m318.96,907.84c34.36,22.94,69.62,44.64,107.3,61.75,37.85,17.18,77.5,29.7,117.49,40.81,5.46,1.52,7.79-6.96,2.34-8.48-40.01-11.11-79.77-23.55-117.57-40.91-36.87-16.94-71.43-38.26-105.13-60.75-4.72-3.15-9.13,4.46-4.44,7.59h0Z"/>
      <path class="cls-4" d="m195.31,731.35c44.76,33.87,90.42,66.83,139.03,95.01,42.64,24.72,87.51,45.14,133.81,62,31.1,11.33,62.71,21.18,94.49,30.38,5.44,1.58,7.77-6.9,2.34-8.48-52.61-15.24-104.87-32.27-154.86-54.81-45.24-20.4-88.13-45.38-129.23-73.14-27.65-18.67-54.54-38.43-81.14-58.56-4.51-3.41-8.9,4.22-4.44,7.59h0Z"/>
      <path class="cls-4" d="m215.01,640.96c87.66,57.53,182.17,104.39,281.08,139.21,28.22,9.93,56.78,18.84,85.62,26.81,5.46,1.51,7.79-6.97,2.34-8.48-129.28-35.73-252.46-91.54-364.59-165.13-4.74-3.11-9.15,4.5-4.44,7.59h0Z"/>
      <path class="cls-5" d="m428.47,806c-5.19-6.72-12.91-11.05-21.01-13.27-9.77-2.67-20.08-2.22-30.04-1.11-10.65,1.19-21.27,2.76-31.88,4.27-21.75,3.09-43.46,6.49-65.12,10.2-24.19,4.14-48.3,8.71-72.34,13.61-10.37-10.3-18.35-23.02-22.87-36.93,20.05-15.29,40.35-30.24,60.98-44.75,28.98-7.96,57.49-17.63,85.32-29,16.96-6.93,34.19-14.01,50.02-23.29,13.73-8.05,26.79-18.51,34.22-32.9,6.72-13,8.42-30.59-1.13-42.72-11.15-14.16-31.73-12.15-47.7-11.25-38.64,2.16-77.06,8.58-114.33,19.02-32.59,9.13-64.33,21.35-94.62,36.46,9.39-21.71,18.63-43.49,27.7-65.33l46.37-62.96c20.07-27.25,40.15-54.49,60.2-81.75,17.17-23.35,36.15-51.76,27.93-82.27-3.22-11.94-11.29-22.64-22.42-28.26-3.51-1.77-7.31-2.95-11.21-3.43-8.94-1.12-17.82,1.34-25.68,5.72-6.43,3.59-12.24,8.18-18,12.74-6.27,4.97-12.46,10.04-18.56,15.21-8,6.77-15.8,13.77-23.51,20.86-1.18.95-2.4,1.85-3.58,2.81-26.97,21.85-52.62,45.35-76.69,70.37-12.13,12.61-23.82,25.72-33.87,40.08-9.92,14.18-18.15,29.47-25.42,45.15-7.26,15.65-13.61,31.7-19.9,47.75-6.6,16.85-13.15,33.75-18.74,50.97-10.94,33.69-18.56,63.32-13.41,98.79.09.63.22,1.25.32,1.87-4.48,8.95-7.42,24.75-8.73,34.71-2.79,21.15,2.32,43.22,14.02,61.05,3.28,5,7.07,9.73,11.41,13.86-3.57,20.54-4.13,41.56.18,62.07,5.74,27.32,20.05,52.27,42.54,69.11,21.37,16,47.65,23.89,73.55,28.84,13.59,2.59,27.31,4.4,41.03,6.1,16.86,2.09,33.79,3.92,50.8,4.2,30.18.51,61.46-4.17,87.71-19.94,3.09-1.86,6.09-3.88,8.99-6.02.7-.52,1.24-1.57.63-2.41-9.74-13.3-21.44-25.02-34.77-34.73-6.62-4.82-13.63-9.13-20.93-12.84-6.1-3.1-12.38-5.83-18.48-8.93l33.94-15.17,60.85-27.2c10.05-4.49,20.1-8.97,30.14-13.47,8.46-3.79,16.93-7.68,24.75-12.69,14.46-9.25,26.36-23.03,27.7-40.78.6-7.97-1.4-16.06-6.32-22.44Z"/>
      <path class="cls-4" d="m254.85,941.39c43.5,34.43,88.54,67.11,137.47,93.45,47.04,25.31,96.07,43.07,148.78,52.12,29.84,5.12,59.98,8.31,90.03,11.84,5.61.66,5.56-8.14,0-8.79-51.53-6.05-103.52-11.24-153.17-27.15-49.46-15.85-95.84-41.72-138.94-70.38-26.87-17.87-52.66-37.27-77.95-57.29-4.39-3.48-10.65,2.71-6.22,6.22h0Z"/>
      <path class="cls-4" d="m184.4,782.02c3.38,17.38,12.82,29.75,28.26,38.28,4.96,2.74,9.4-4.85,4.44-7.59-13.58-7.51-21.25-17.77-24.22-33.03-1.08-5.55-9.55-3.2-8.48,2.34h0Z"/>
      <path class="cls-4" d="m161.32,829.87c23.67-3.37,47.2-7.52,70.63-12.28,5.54-1.12,3.2-9.6-2.34-8.48-23.43,4.75-46.96,8.91-70.63,12.28-5.58.79-3.21,9.27,2.34,8.48h0Z"/>
      <path class="cls-4" d="m170.23,979.59c44.87-18.06,89.13-37.6,134-55.67,5.18-2.09,2.92-10.59-2.34-8.48-44.87,18.06-89.13,37.6-134,55.67-5.18,2.09-2.92,10.59,2.34,8.48h0Z"/>
      <path class="cls-4" d="m163.8,656.21c8.01-21.87,15.6-44.04,26.96-64.45,11.64-20.91,26.07-40.17,41.37-58.52,3.6-4.32-2.59-10.57-6.22-6.22-15.78,18.92-30.72,38.75-42.74,60.3-11.74,21.05-19.58,43.99-27.84,66.55-1.95,5.32,6.54,7.62,8.48,2.34h0Z"/>
      <path class="cls-4" d="m59.83,554.7c12.32-29.89,29.77-58.18,51.04-82.52,21.77-24.91,48.38-45.89,73.06-67.81,4.24-3.77-2-9.97-6.22-6.22-26.15,23.24-54.41,45.39-76.91,72.32-20.54,24.58-37.24,52.29-49.45,81.89-2.15,5.23,6.35,7.5,8.48,2.34h0Z"/>
      <path class="cls-4" d="m67.05,712.65c46.13-28.17,93.55-54.12,142.15-77.78,5.09-2.48.63-10.06-4.44-7.59-48.59,23.66-96.02,49.61-142.15,77.78-4.82,2.94-.41,10.55,4.44,7.59h0Z"/>
      <path class="cls-4" d="m221.19,364.55c-1.19,24.66,22.66,39.22,44.93,31.43,20.38-7.14,43.12-27.7,47.63-49.46,1.15-5.52-7.33-7.88-8.48-2.34-3.38,16.32-18.16,30.22-31.96,38.62-8.78,5.35-19.75,9.29-29.74,4.95-9.2-4-14.07-13.43-13.6-23.19.27-5.66-8.52-5.64-8.79,0h0Z"/>
      <path class="cls-4" d="m332.96,602.27c-19.15,19.39,1.53,44.39,23.02,48.28,12.16,2.2,24.92.4,37.02-1.56,11.46-1.85,22.81-5,31.89-12.52,4.36-3.61-1.89-9.8-6.22-6.22-11.99,9.93-31.43,11.54-46.45,12.33-10.02.53-20.51-.43-28.82-6.56-8.8-6.5-12.63-19.04-4.23-27.55,3.98-4.03-2.23-10.25-6.22-6.22h0Z"/>
      <path class="cls-4" d="m30.58,858.35c9.47-14.59,23.33-25.04,39.95-30.16,5.39-1.66,3.09-10.15-2.34-8.48-18.85,5.81-34.48,17.67-45.21,34.21-3.09,4.76,4.52,9.17,7.59,4.44h0Z"/>
      <path class="cls-4" d="m157.06,802.48c32.27-18.92,63.01-40.38,95.6-58.77,14.84-8.38,29.39-14.43,45.77-19.13,20.66-5.93,41.55-11.3,61.28-19.97,29.23-12.84,65.87-35.55,67.99-71.28,2.87-48.21-57.6-37.22-88.35-33.98-45.13,4.74-92.65,9.42-134.59,27.94-5.17,2.28-.7,9.86,4.44,7.59,34.02-15.02,72.41-20.02,109.01-24.38,20.99-2.5,42.46-5.76,63.61-6.07,9.76-.14,20.58.77,28.9,6.41,8.26,5.6,9.34,15.92,7.93,25.17-5.43,35.45-47.09,55.66-77.01,66.37-19.43,6.95-39.58,11.55-59.23,17.8-11.65,3.71-22.53,9.41-33.16,15.37-32.98,18.5-64.01,40.23-96.62,59.34-4.88,2.86-.46,10.46,4.44,7.59h0Z"/>
      <path class="cls-4" d="m222,623.15c-15.98-17.33-12.97-50.03,11.97-57.57,5.4-1.63,3.1-10.12-2.34-8.48-31.4,9.49-36.34,50.03-15.85,72.26,3.84,4.17,10.05-2.06,6.22-6.22h0Z"/>
      <path class="cls-4" d="m231.95,817.59c37.96-7.29,76.23-13.25,114.69-17.25,17.01-1.77,34.87-4.39,51.98-2.77,8.82.84,18.68,3.43,24.87,10.21,6.52,7.14,7.91,18.61,5.63,27.65-1.38,5.49,7.09,7.83,8.48,2.34,4.12-16.35-1.55-34.52-16.76-42.89-16.91-9.31-38.13-6.54-56.51-4.99-45.19,3.81-90.19,10.69-134.71,19.23-5.55,1.07-3.2,9.54,2.34,8.48h0Z"/>
      <path class="cls-4" d="m305.28,923.48c26.09-11.04,51.4-24.01,76.7-36.74,22.12-11.13,46.17-24.72,55.62-48.97,2.06-5.27-6.44-7.56-8.48-2.34-9.34,23.97-36.42,36.17-57.96,46.89-23.24,11.57-46.4,23.44-70.32,33.56-5.19,2.2-.72,9.77,4.44,7.59h0Z"/>
      <path class="cls-4" d="m707.07,661.27c13.96-6.45,28.53-11.84,43.69-14.6,5.56-1.01,3.2-9.49-2.34-8.48-15.92,2.89-31.15,8.72-45.79,15.49-5.13,2.37-.67,9.95,4.44,7.59h0Z"/>
      <path class="cls-4" d="m351.34,792.89c-12.74,20.02-7.28,45.67,14.35,56.41,21.82,10.83,50.28,3.72,69.88-8.9,4.74-3.05.34-10.67-4.44-7.59-15.11,9.73-36.82,16.45-54.61,11.32-21.43-6.18-29.56-28.01-17.6-46.81,3.05-4.79-4.56-9.2-7.59-4.44h0Z"/>
    </g>
  </g>
</svg>