<?xml version="1.0" encoding="UTF-8"?>
<svg id="Layer_2" data-name="Layer 2" xmlns="http://www.w3.org/2000/svg" viewBox="0 0 457.48 319.43">
  <defs>
    <style>
      .cls-1 {
        fill: #fff;
      }

      .cls-2 {
        fill: #eff1b4;
      }

      .cls-3 {
        fill: #999;
      }

      .cls-4 {
        fill: #b8e5fa;
      }

      .cls-5 {
        fill: #b0d7dc;
      }

      .cls-6 {
        fill: #1b425d;
      }

      .cls-7 {
        fill: #94c3d3;
      }
    </style>
  </defs>
  <g id="Layer_1-2" data-name="Layer 1">
    <g>
      <path class="cls-1" d="m138.18,257.46c4.18,6.06,6.63,13.42,6.63,21.34,0,20.79-16.85,37.64-37.64,37.64s-37.64-16.85-37.64-37.64c0-7.92,2.45-15.27,6.63-21.34h62.03Z"/>
      <path class="cls-7" d="m128.5,278.8c0,11.78-9.55,21.34-21.34,21.34s-21.34-9.56-21.34-21.34,9.55-21.34,21.34-21.34,21.34,9.55,21.34,21.34Z"/>
      <path class="cls-3" d="m116.03,278.8c0,4.9-3.97,8.87-8.87,8.87s-8.87-3.97-8.87-8.87,3.97-8.87,8.87-8.87,8.87,3.97,8.87,8.87Z"/>
      <path class="cls-4" d="m365.63,116.67l24.69,52.02s2.54,5.34,9.17,5.34h24.93-.21l-37.99-57.36h-20.59Z"/>
      <path class="cls-1" d="m365.63,116.67l24.69,52.02s2.54,5.34,9.17,5.34h24.93c8.39,0,10.37,9.97,10.37,9.97.11.45.21.91.32,1.36H22.63c2.85-23.37,7.11-46.3,13.24-68.68h329.75Z"/>
      <path class="cls-7" d="m434.79,185.35l.25-.29c3.59,14.77,5.52,30.32,5.52,46.36,0,14.05-1.47,27.71-4.24,40.81,0,0-1.98,9.96-10.37,9.96h-37.71l-14.41-32.47s-3.95-8.58-13.89-8.58h-33.02c-9.94,0-13.89,8.58-13.89,8.58l-14.93,32.47h-145.85s-9.15-20.91-9.15-20.91c0,0-1.72-3.84-4.99-3.84h-61.13c-3.27,0-4.99,3.84-4.99,3.84l-9.89,20.91H28.32c-5.79,0-10.48-4.69-10.48-10.48,0-29.35,1.36-58.18,4.79-86.37h412.16Z"/>
      <circle class="cls-1" cx="343.16" cy="278.8" r="37.64" transform="translate(-1.72 2.12) rotate(-.35)"/>
      <path class="cls-7" d="m364.49,278.8c0,11.79-9.55,21.34-21.34,21.34s-21.34-9.55-21.34-21.34,9.55-21.34,21.34-21.34,21.34,9.55,21.34,21.34Z"/>
      <circle class="cls-3" cx="343.16" cy="278.8" r="8.87"/>
      <path class="cls-3" d="m439.75,251.33h10.25c2.63,0,4.76,2.13,4.76,4.76v10.87c0,2.63-2.13,4.76-4.76,4.76h-13.68l3.43-20.4Z"/>
      <path class="cls-3" d="m18.32,251.37l-10.84-.04c-2.63,0-4.76,2.13-4.76,4.76v10.87c0,2.63,2.13,4.76,4.76,4.76h10.36l.48-20.36Z"/>
      <path class="cls-2" d="m446.44,226.82c0,8.5-3.11,15.4-6.95,15.4s-9.4-6.89-9.4-15.4,5.56-15.4,9.4-15.4,6.95,6.9,6.95,15.4Z"/>
      <path class="cls-1" d="m368.12,98.57c10,0,18.1,8.1,18.1,18.1h-102.83v-18.1h84.73Z"/>
      <path class="cls-1" d="m45.43,92.92L256.48,2.99l7.1,16.65L35.87,116.67c-3.92-9.2.36-19.83,9.56-23.75Z"/>
      <path class="cls-4" d="m180.03,129.43h89.91c2.95,0,5.34,2.39,5.34,5.34v33.92c0,2.95-2.39,5.34-5.34,5.34h-89.91c-2.95,0-5.34-2.39-5.34-5.34v-33.92c0-2.95,2.39-5.34,5.34-5.34Z"/>
      <path class="cls-4" d="m71.67,168.69c2.1-11.85,4.57-23.58,7.37-35.18,1.01-4.17,4.78-4.08,4.78-4.08h69.22c2.95,0,5.34,2.39,5.34,5.34v33.92c0,2.95-2.39,5.34-5.34,5.34h-76.62s-5.55,0-4.75-5.34Z"/>
      <path class="cls-4" d="m351.72,129.43h-54.79c-2.95,0-5.34,2.39-5.34,5.34v33.92c0,2.95,2.51,5.34,5.46,5.34h72.29s10.34.59,5.32-10.01l-13.78-29.25s-2.54-5.34-9.17-5.34Z"/>
      <path class="cls-5" d="m283.39,116.67c-21.78-27.74-27.07-93.93-27.07-93.93L35.87,116.67h247.52Z"/>
      <g>
        <path class="cls-6" d="m68.35,127.84c-.49-.63-1.24-.99-2.04-.99h-15.26c-1.96-.05-6.1,1.15-7.28,6.05-2.82,11.64-5.31,23.53-7.4,35.34,0,.02,0,.05-.01.07-.43,2.9.55,4.75,1.44,5.78,2.11,2.45,5.49,2.52,5.87,2.52h13.35c1.26,0,2.34-.91,2.55-2.16,2.5-14.86,5.61-29.8,9.26-44.4.19-.77.02-1.59-.47-2.22Zm-24.68,43.61c-.43-.01-1.51-.2-1.96-.74-.19-.23-.29-.57-.29-1.02,0-.18.02-.38.05-.6,2.07-11.68,4.54-23.45,7.33-34.97.45-1.86,1.73-2.09,2.25-2.1,0,0,8,0,12.03,0-.53,2.17-1.03,4.35-1.53,6.53h-8.77c-1.13,0-2.04.91-2.04,2.04s.91,2.04,2.04,2.04h7.83c-.53,2.35-1.03,4.71-1.53,7.07h-8.73c-1.13,0-2.04.91-2.04,2.04s.91,2.04,2.04,2.04h7.88c-.48,2.36-.96,4.71-1.41,7.07h-8.68c-1.13,0-2.04.91-2.04,2.04s.91,2.04,2.04,2.04h7.93c-.4,2.18-.81,4.35-1.18,6.53-3.02,0-11.21,0-11.21,0Z"/>
        <path class="cls-6" d="m301.92,199.61c-1.65,0-2.99,1.34-2.99,2.99s1.34,2.99,2.99,2.99h13.24c1.65,0,2.99-1.34,2.99-2.99s-1.34-2.99-2.99-2.99h-13.24Z"/>
        <g>
          <path class="cls-6" d="m343.16,254.74c-13.27,0-24.06,10.79-24.06,24.06s10.79,24.06,24.06,24.06,24.05-10.79,24.05-24.06-10.79-24.06-24.05-24.06Zm0,42.68c-10.27,0-18.62-8.35-18.62-18.62s8.35-18.62,18.62-18.62,18.62,8.35,18.62,18.62-8.35,18.62-18.62,18.62Z"/>
          <path class="cls-6" d="m343.16,267.48c-6.24,0-11.32,5.08-11.32,11.32s5.08,11.32,11.32,11.32,11.32-5.08,11.32-11.32-5.08-11.32-11.32-11.32Zm0,17.74c-3.54,0-6.42-2.88-6.42-6.43s2.88-6.42,6.42-6.42,6.42,2.88,6.42,6.42-2.88,6.43-6.42,6.43Z"/>
          <path class="cls-6" d="m450,248.61h-7.19c.14-1.63.26-3.25.36-4.88,3.94-2.75,5.99-9.85,5.99-16.91,0-7.54-2.34-15.13-6.81-17.41-.97-8.82-2.53-17.61-4.65-26.14,0,.05.02.09.03.14-.82-4.09-4.4-11.64-12.19-12.31l-36.33-54.86c-.23-11.43-9.59-20.67-21.08-20.67h-84.73c-1.65,0-2.99,1.34-2.99,2.99v8.09c-14.69-26.46-19.88-71.72-20.9-82.02l5.25-2.24c1.52-.65,2.23-2.4,1.58-3.92l-7.1-16.65c-.31-.73-.9-1.31-1.63-1.6-.73-.3-1.56-.29-2.29.02L44.26,90.17c-5.18,2.21-9.2,6.3-11.3,11.53-1.96,4.88-2.01,10.2-.21,15.1-10.62,39.1-16.31,81.47-17.6,131.83l-7.65-.03c-4.14,0-7.49,3.36-7.49,7.48v10.87c0,4.13,3.36,7.48,7.48,7.48h7.64c1.26,6.13,6.7,10.75,13.19,10.75h33.77c1.16,0,2.21-.67,2.7-1.71l1.76-3.72c.52,21.96,18.53,39.67,40.61,39.67s40.25-17.86,40.61-39.95l1.72,3.93c.48,1.09,1.55,1.79,2.74,1.79h145.85c1.17,0,2.23-.68,2.72-1.74l1.75-3.8c.46,22.01,18.49,39.77,40.61,39.77s40.22-17.83,40.61-39.9l1.73,3.89c.48,1.08,1.54,1.78,2.72,1.78h37.72c7.59,0,11.49-6.33,12.88-10.75h11.18c4.13,0,7.48-3.36,7.48-7.48v-10.87c0-4.13-3.36-7.48-7.48-7.48ZM14.86,269.01h-7.38c-1.13,0-2.05-.92-2.05-2.05v-10.87c0-1.13.92-2.05,2.05-2.05l7.54.03c-.09,4.9-.15,9.88-.16,14.93ZM384.94,119.66l34.03,51.38h-19.48c-4.58,0-6.41-3.52-6.48-3.67l-22.65-47.71h14.58Zm-16.82-18.1c7.31,0,13.42,5.22,14.81,12.12h-96.54v-12.12h81.74Zm-90.47,12.12h-146.47c-4.36,0-8.65,0-12.86,0H50.52L253.6,27.15s.09-.04.13-.05c1.46,14.15,7.36,60.72,23.92,86.59Zm-239.13-9.75c1.51-3.74,4.38-6.68,8.1-8.26,0,0,202.94-86.47,208.3-88.76,1.31,3.08,3.44,8.07,4.75,11.15-5.3,2.26-216.1,92.08-221.93,94.56-.21-1.01-.32-2.03-.32-3.05,0-1.91.37-3.82,1.1-5.64Zm-.33,15.73h245.21s60.01,0,60.01,0h20.33c1.52,3.19,23.88,50.31,23.88,50.31.14.29,3.44,7.05,11.87,7.05h24.93c4.38,0,6.35,4.13,7.08,6.29H25.86c2.85-22.55,6.92-43.56,12.32-63.66Zm68.98,193.79c-19.11,0-34.65-15.54-34.65-34.65,0-6.55,1.83-12.85,5.28-18.35h13.84c-5.21,4.42-8.52,11-8.52,18.35,0,13.27,10.79,24.06,24.06,24.06s24.06-10.79,24.06-24.06c0-7.35-3.32-13.93-8.52-18.35h13.84c3.45,5.5,5.28,11.8,5.28,18.35,0,19.11-15.54,34.65-34.65,34.65Zm-3.05-53h6.1c8.82,1.46,15.57,9.12,15.57,18.35,0,10.27-8.35,18.62-18.62,18.62s-18.62-8.35-18.62-18.62c0-9.23,6.75-16.89,15.57-18.35Zm60.33,18.77h-10.26c-1.31-3-8.36-19.12-8.36-19.12-.94-2.11-3.62-5.63-7.73-5.63h-61.13c-4.12,0-6.79,3.52-7.72,5.61,0,0-7.69,16.25-9.05,19.14h-31.87c-4.13,0-7.49-3.36-7.49-7.49,0-30.79,1.48-58.58,4.53-84.33h139.08v91.82Zm116.9,0h-112.83v-91.82h112.83v91.82Zm61.8,34.23c-19.11,0-34.65-15.54-34.65-34.65s15.54-34.65,34.65-34.65,34.65,15.54,34.65,34.65-15.54,34.65-34.65,34.65Zm90.24-41.83c-.07.33-1.65,7.59-7.45,7.59h-35.77c-1.41-3.18-13.62-30.69-13.62-30.69-.21-.46-4.9-10.36-16.62-10.36h-33.02c-11.72,0-16.41,9.9-16.61,10.32,0,0-12.7,27.61-14.13,30.73h-10.74v-91.82h147.1c1.69,7.25,2.97,14.66,3.81,22.11-4.59,2.28-8.97,9.15-8.97,17.31,0,8.63,4.9,15.79,9.77,17.64-.61,9.16-1.86,18.28-3.74,27.17Zm-.59-44.81c0-7.7,4.97-12.68,6.69-12.68,1.23,0,4.23,4.44,4.23,12.68s-3,12.68-4.23,12.68c-1.72,0-6.69-4.98-6.69-12.68Zm19.24,40.15c0,1.13-.92,2.05-2.04,2.05h-9.98c.94-4.93,1.7-9.93,2.26-14.97h7.72c1.13,0,2.04.92,2.04,2.05v10.87Z"/>
          <path class="cls-6" d="m107.16,290.12c6.24,0,11.32-5.08,11.32-11.32s-5.08-11.32-11.32-11.32c-3.02,0-5.87,1.18-8,3.31-2.14,2.14-3.31,4.98-3.31,8,0,6.24,5.08,11.32,11.32,11.32Zm-4.54-15.86c1.21-1.21,2.83-1.88,4.54-1.88,3.54,0,6.42,2.88,6.42,6.42s-2.88,6.42-6.42,6.42-6.43-2.88-6.43-6.42c0-1.72.67-3.33,1.88-4.54Z"/>
          <path class="cls-6" d="m269.94,126.71h-89.91c-4.44,0-8.06,3.62-8.06,8.06v33.92c0,4.44,3.62,8.06,8.06,8.06h89.91c4.44,0,8.06-3.62,8.06-8.06v-33.92c0-4.44-3.62-8.06-8.06-8.06Zm2.62,41.98c0,1.45-1.18,2.62-2.62,2.62h-89.91c-1.45,0-2.62-1.17-2.62-2.62v-33.92c0-1.45,1.18-2.62,2.62-2.62h89.91c1.45,0,2.62,1.17,2.62,2.62v33.92Z"/>
          <path class="cls-6" d="m153.04,126.71h-69.22c-1.99-.05-6.21,1.17-7.42,6.16-2.82,11.65-5.31,23.54-7.41,35.34,0,.03,0,.05-.01.08-.44,2.95.56,4.83,1.47,5.89,2.15,2.5,5.59,2.57,5.97,2.57h76.62c4.44,0,8.06-3.62,8.06-8.06v-33.92c0-4.44-3.62-8.06-8.06-8.06Zm2.62,41.98c0,1.45-1.18,2.62-2.62,2.62h-76.62c-.39,0-1.44-.2-1.86-.69-.19-.23-.25-.58-.25-.93,0-.2.02-.4.05-.58,2.07-11.68,4.54-23.44,7.33-34.96.43-1.77,1.63-1.99,2.12-2h69.23c1.44,0,2.62,1.18,2.62,2.62v33.92Z"/>
          <path class="cls-6" d="m363.35,133.61c-.14-.29-3.37-6.9-11.63-6.9h-54.79c-4.44,0-8.06,3.62-8.06,8.06v33.92c0,4.44,3.67,8.06,8.18,8.06h72.23c.89.04,5.84.07,8.27-3.55,1.74-2.58,1.6-6.06-.43-10.34l-13.78-29.24Zm9.7,36.54c-.63.96-2.72,1.2-3.57,1.16-.04,0-.1,0-.14,0h-72.29c-1.49,0-2.74-1.2-2.74-2.62v-33.92c0-1.45,1.18-2.62,2.62-2.62h54.79c4.75,0,6.65,3.66,6.72,3.81l13.76,29.22c.74,1.56,1.12,2.89,1.12,3.85,0,.47-.09.85-.28,1.13Z"/>
        </g>
      </g>
    </g>
  </g>
</svg>