<?xml version="1.0" encoding="UTF-8"?>
<svg id="Layer_2" data-name="Layer 2" xmlns="http://www.w3.org/2000/svg" viewBox="0 0 75.12 75.23">
  <defs>
    <style>
      .cls-1 {
        fill: #fff;
      }
    </style>
  </defs>
  <g id="Layer_1-2" data-name="Layer 1">
    <g>
      <path class="cls-1" d="m69.73.02s-.04,0-.06.01h.09-.03Z"/>
      <path class="cls-1" d="m38.3,21.47l-.17-.14h-.14c.1.05.21.11.31.16,0,0,0-.02,0-.03Z"/>
      <path class="cls-1" d="m25.38,1.18v.21l.14.17s.09.01.12.01c.02,0,.02,0,.04,0-.04-.03-.07-.07-.11-.1-.09-.08-.15-.18-.19-.28Z"/>
      <path class="cls-1" d="m51.69,6.87h-.1s.08.03.12.04l-.02-.04Z"/>
      <path class="cls-1" d="m2.16.02c-.13-.03-.22-.02-.3.02h.32v-.02Z"/>
      <path class="cls-1" d="m14.2,75.23s.06,0,.09,0l.07-.08h-.38c.06.05.13.09.22.09Z"/>
      <path class="cls-1" d="m74.3,49.95h-19.8c-.69,0-1.08.8-.65,1.34l2.7,3.41s.04.06.06.09l1.32,1.66c.16.2.4.31.65.31h15.73c.46,0,.83-.37.83-.83v-5.16c0-.46-.37-.83-.83-.83Zm-16.27,4.24l-.11.07.05.07c0,.16-.04.25-.09.3-.06.06-.14.1-.23.08l-.12.09c-.21-.05-.29-.21-.27-.34.01-.13.11-.23.23-.28-.04-.09-.04-.19,0-.27.1-.17.43-.17.53,0,.05.08.05.18,0,.28Zm1.28-1.85v-.19s-.03.02-.07,0c-.03-.01-.13-.16-.08-.23.02-.02.04,0,.06,0v-.19c.09,0,.18.05.24.14.05.07.08.16.08.23,0,.14-.1.24-.24.24Zm2.13,3.76s-.09.05-.11.07l-.24.03c-.1-.08-.14-.2-.11-.32.07-.21.38-.36.58-.37l.18.18c-.02.24-.19.33-.3.39Zm2.31-4.45l-.13-.06c-.09-.1-.13-.24-.12-.42l.15-.16c.19-.02.33.02.41.11.07.08.09.18.08.3l-.07.12c-.08.05-.17.1-.31.1h-.01Zm.3.9l-.16-.14c-.03-.17.02-.26.05-.33.01-.02.02-.04.02-.05l.12-.13c.22-.06.33.08.37.14l.15.18c0,.12-.07.32-.43.32-.04,0-.09,0-.13,0Zm1.09,1.03l-.19.17c-.1,0-.17-.04-.21-.06-.03-.02-.03-.02-.04-.02l-.2-.14c-.03-.16,0-.29.08-.38.06-.07.18-.15.42-.12l.15.17v.38Z"/>
      <path class="cls-1" d="m74.3,59.1h-12.58c-.69,0-1.08.8-.65,1.34l4.08,5.16c.16.2.4.31.65.31h8.5c.46,0,.83-.37.83-.83v-5.16c0-.46-.37-.83-.83-.83Zm-12.69,1.04l-.22.17c-.08-.01-.35-.08-.3-.49l.14-.15c.17-.04.27.02.33.05.02.01.03.02.05.02l.13.21c-.02.1-.08.15-.12.19Zm9.24.75l-.17.17h-.23l-.17-.14c-.03-.14.04-.22.07-.26l.21-.16c.07.02.11.05.14.07l.15.17v.15Z"/>
      <path class="cls-1" d="m74.3,68.26h-5.34c-.69,0-1.08.8-.65,1.34l4.13,5.23c.16.2.4.31.65.31h1.21c.46,0,.83-.37.83-.83v-5.23c0-.46-.37-.83-.83-.83Z"/>
      <polygon class="cls-1" points="68.82 75.14 69.72 75.14 68.24 73.26 68.82 75.14"/>
      <path class="cls-1" d="m65.83,73.43s0,0,0,.01l-.16.05c-.21-.05-.21-.26-.21-.37,0-.03,0-.05,0-.08l.19-.19s0,0,0,0l-1.48-4.73-.15-.19s-.01-.02-.02-.02l-.16-.22-4.69-5.93c-.52-.66-1.57-.22-1.47.62l1.5,12.04c.05.41.4.72.82.72h5.24c.56,0,.96-.54.79-1.07l-.2-.64Zm-7.11-7.12l-.25.16c-.15-.07-.23-.22-.25-.44l.27-.16s.07.05.12.05l.15.27c-.03.05-.05.07-.05.12Zm.7,5.38h-.06s-.16-.14-.16-.14c-.03-.16.02-.26.05-.32.01-.02.02-.04.02-.05l.12-.13c.22-.06.33.08.37.14l.13.26c-.06.11-.19.24-.48.24Zm5.22-.22c-.16,0-.26-.07-.31-.12-.08-.09-.1-.22-.08-.38l.28-.11s.05.02.08.03c.1.04.33.13.29.43l-.14.14s-.08,0-.11,0Zm.81,2.28c-.1.1-.21.13-.28.13-.17,0-.33-.13-.36-.31-.03-.17.06-.33.23-.4h.09c.29-.01.33.26.35.37v.06s-.04.16-.04.16Z"/>
      <path class="cls-1" d="m54.53,55.94v-.02s-3.24-4.09-3.24-4.09c-.46-.58-1.4-.31-1.47.43l-2.22,21.98c-.05.49.33.91.82.91h7.56c.5,0,.88-.44.82-.93l-2.27-18.27Zm-5.01,7.67c-.12,0-.22-.06-.26-.17-.07-.25.08-.35.14-.39l.16-.15s0,0,0,0c.11,0,.18.04.22.11.02.04.03.08.03.12.06.06.08.14.07.21-.03.15-.22.26-.37.26Zm3.51-1.72c-.08.09-.2.15-.35.16l-.18-.17s0-.06-.03-.11c-.04-.08-.09-.2-.04-.39l.14-.13c.22-.03.36,0,.5.11l.07.13c.01.17-.02.3-.11.4Zm1.83,12.74l-.18-.13c-.06-.28.14-.37.21-.4,0,0,.02,0,.03-.01,0,0,0-.01,0-.03l.2-.22c.16.03.26.15.25.3-.01.23-.27.47-.5.49Z"/>
      <path class="cls-1" d="m47.74,47.33l-1.45-1.84c-.41-.52-1.24-.37-1.44.26l-2.17,6.89.08-.06c.06.02.11.05.13.07l.14.21c-.02.06-.05.1-.07.13l-.21.15c-.07-.02-.11-.05-.13-.07l-.05-.08-4.35,13.82c.03.06.05.12.04.19,0,.1-.07.2-.18.26l-2.14,6.79c-.17.53.23,1.08.79,1.08h7.67c.42,0,.78-.32.82-.74l2.68-26.47c.02-.21-.04-.43-.17-.6Zm-8.73,21.26s-.03,0-.05,0c0,0,.02-.02.02-.04l-.18.2c-.28-.01-.45-.18-.47-.46l.09-.16c.13-.08.28-.07.37-.03,0,0,0,0,0-.02l.2-.12c.21.05.21.26.2.37,0,.03,0,.05,0,.08l-.2.19Zm1.4,3.19l-.13.12s-.07.01-.1.01c-.11,0-.18-.04-.23-.07-.02-.01-.04-.02-.05-.02l-.13-.15c-.02-.18.04-.3.09-.36.13-.15.38-.13.49.03.05.06.12.21.05.44Zm-.04-6.56l-.21.03h0c-.05-.03-.08-.05-.12-.05l-.18-.15c-.02-.17,0-.3.09-.38.05-.06.14-.13.33-.11l.1.05c.16.16.16.45,0,.61Zm1.05,8.24c-.09,0-.17-.04-.24-.1l-.05-.14c.02-.17.15-.29.32-.29.1,0,.2.04.28.11l.03.21c-.08.13-.2.21-.33.21Zm.52-3.52c-.13-.03-.54-.13-.58-.6l.28-.15s.08.05.14.07c.15.07.41.18.38.53l-.21.15Zm1.73-4.75c-.06,0-.12-.02-.17-.04-.03,0-.07-.02-.1-.03l-.15-.18c0-.18.15-.31.35-.31.12,0,.25.05.32.13l.04.15c-.05.24-.2.27-.29.27Zm.88-12.41s-.07,0-.11,0l-.15-.14c-.02-.15.03-.25.08-.3.12-.14.38-.14.52.01l.05.14c-.03.19-.17.3-.39.3Zm1.32-5.81l-.14-.21c.02-.06.05-.1.07-.13l.21-.15c.07.02.11.05.13.07l.15.21c-.02.07-.05.11-.07.13l-.21.14c-.07-.02-.11-.05-.14-.07Zm.87,3.97l-.17.17h-.22l-.12-.05c-.12-.12-.16-.31-.1-.46.08-.18.26-.27.49-.2l.13.17v.38Z"/>
      <path class="cls-1" d="m34.59,65.46s.02.01.02.02c0-.01,0-.03.01-.04-.01,0-.03,0-.03.02h0s0,0,0,0c0,0,0,0,0,0h0Z"/>
      <path class="cls-1" d="m36.05,65.5s.03,0,.07-.02l.06.05,5.54-17.6s-.08.02-.12.02c-.1,0-.2-.04-.28-.12l-.04-.17c.02-.07.07-.25.25-.25.05,0,.09.01.12.03.03.01.06.02.1.02l.08.1,1.6-5.09c.08-.27.04-.55-.14-.76l-.98-1.24c-.05-.06-.63-.82-.68-.86-.15-.15-.36-.25-.6-.25-.28,0-.54.15-.69.36l-4.44,8.12c.11.02.18.11.2.15l.15.19c0,.12-.07.32-.43.32-.04,0-.09,0-.13,0l-.1-.09-13.96,25.51c-.3.55.09,1.23.72,1.23h5.4c.07-.03.14-.03.21,0h4.55c.36,0,.69-.23.79-.58l2.18-6.92c-.05,0-.15,0-.15.04l-.26.14c-.08-.04-.12-.11-.15-.18l-.07.06c.03.08.04.17.03.29l-.14.15s-.07.01-.1.01c-.11,0-.18-.04-.23-.07-.02-.01-.03-.02-.05-.02l-.13-.14c-.03-.14.04-.22.07-.26l.08-.08s-.08-.1-.11-.16c-.05-.13-.03-.28.07-.39l.14-.06c.15,0,.27.06.35.16.03.03.05.07.07.12l.08-.12h0s0,0,0,0h0s.01,0,.02,0l-.09-.19s.03-.05.04-.07c-.11-.03-.21-.06-.26-.09l-.08-.11c-.09-.36.09-.51.22-.6-.04-.02-.07-.06-.09-.1,0,0,0,0,0,0-.03.24-.17.39-.36.39-.03,0-.06,0-.09-.01l-.12-.13c-.02-.08-.02-.15-.01-.21-.01,0-.03,0-.04,0h-.13c-.06,0-.12,0-.2.03l-.23-.15c0-.2.12-.29.18-.34.01-.01.04-.03.04-.03l.13-.17c.16-.04.3.02.38.08l.12-.08c.07,0,.13.04.18.09,0,0,.01-.02.01-.03-.03-.02-.06-.04-.07-.07-.05-.11.01-.21.05-.27l-.05-.06c.07-.2.21-.22.27-.22.12,0,.21.08.28.13,0,0,.02.02.03.02l.05-.03c.12.07.17.15.15.24-.01.08-.06.13-.13.16.04.04.07.1.08.17.02.09.03.19.01.29.01,0,.02,0,.03.01.03.01.07.03.11.06-.05-.13-.06-.3.03-.43.06-.08.1-.14.19-.14l.14.07.07-.04c.06.05.09.11.12.16,0,.02.02.05.03.05Zm3.03-10.56c-.03.09-.11.27-.33.27-.04,0-.09,0-.14-.02l-.1-.25c.08-.14.17-.31.43-.31l.17.26s-.02.04-.03.06Zm1.02-5.42v-.17c.06,0,.12.03.16.07.06.06.1.16.1.25h0c0,.14-.09.24-.22.24v-.18s-.07,0-.13-.06c.02-.11.06-.15.09-.15Zm-.75,4.44l-.17.17h-.15l-.17-.14c-.02-.14,0-.25.06-.33.04-.05.11-.1.24-.1l.19.17v.23Zm-.34-8.52c.18.06.27.2.26.39l-.13.16s-.06.01-.08.01c-.17,0-.26-.12-.27-.35l.23-.21Zm-.5,6.94s-.03.04-.03.07l.02-.02h0l.17-.15c.1.01.34.09.3.49l-.13.15s-.07.01-.11.01c-.16,0-.23-.1-.26-.16l-.15-.22c.03-.12.13-.16.18-.18Zm-1,4.53s.13-.11.27-.11h.05s.16.16.16.16c0,.13-.02.23-.09.31-.04.05-.13.11-.27.11h-.05s-.16-.16-.16-.16c-.01-.13.01-.23.08-.31Zm-.61-4.49c.05,0,.1,0,.15.03l.11.16v.23l-.05.12c-.13.13-.32.12-.42.05l-.08.07c-.22,0-.28-.15-.28-.24,0-.22.32-.42.57-.42Zm-11.98,22.19c-.09.03-.17.05-.24.05-.1,0-.17-.05-.2-.08-.09-.1-.09-.25-.09-.37l.21-.16h.06c.11.03.41.08.38.41l-.11.14Zm2.01-3.98v-.18s-.02,0-.04,0v-.3c.06-.05.11-.06.16-.06v-.18c.09,0,.17.04.23.11.04.06.07.13.07.21,0,.19-.14.4-.41.4Zm2.51-10.3c-.05-.18.03-.46.13-.54l.14-.04c.14.02.21.1.24.15.07.14,0,.29-.05.4-.02.04-.04.07-.05.11l-.2.12c-.1-.02-.18-.09-.21-.2Zm.64,11.5h-.05c-.28,0-.33-.26-.35-.37v-.06s.14-.21.14-.21h.05c.28,0,.33.26.35.37v.06s-.14.21-.14.21Zm1.55,1.29l-.2.06c-.08-.03-.13-.08-.15-.15,0-.01,0-.03-.01-.04-.07-.05-.1-.13-.09-.21.02-.21.27-.37.47-.29l.1.13c.03.2,0,.37-.11.5Zm-.04-6.74h-.2c-.11-.1-.11-.21-.11-.29,0-.05,0-.11-.02-.19l.16-.17s0,0,0,0l.21-.12c.2.05.26.18.27.25.04.23-.2.45-.29.51Zm1.41-6.09s-.01,0-.02,0v.18c-.27,0-.42-.19-.42-.38,0-.1.04-.19.11-.26.05-.05.14-.1.29-.1v.19s.06-.02.11,0c.02.17-.01.29-.07.38Zm2.58,2.04h-.06s-.21-.16-.21-.16v-.23l.28-.13s-.06.02-.06.02c.04-.03.11-.06.24-.06l.18.15c.04.33-.26.38-.37.4Z"/>
      <polygon class="cls-1" points="34.75 65.45 34.82 65.45 34.82 65.45 34.75 65.45 34.75 65.45"/>
      <path class="cls-1" d="m27.9,57.14s.03,0,.06.01l-.16-.22c.03-.09.08-.15.12-.19l.23-.16c.14.02.21.09.24.15,0,0,0,0,0,.01l8.53-15.59s-.07-.07-.09-.12c-.06-.14-.05-.34.06-.45l.12-.05h.15l.06.08,1.87-3.42c.16-.29.13-.65-.08-.91l-1.7-2.17c-.34-.43-1-.42-1.32.03l-4.03,5.55s.03.02.04.02l.13.15c.01.12-.01.23-.08.3-.07.08-.18.12-.31.12-.03,0-.06,0-.1,0l-.05-.06-23.03,31.73c.05.07.08.16.08.25h-.17c0,.11-.06.2-.21.16l-1.07,1.48c-.1.14-.15.29-.16.44.07.04.12.1.15.18.03.09,0,.18-.05.26.14.25.39.43.72.43h6.13s-.07-.07-.09-.12c-.06-.16-.02-.36.1-.47l.13-.05c.34.02.32.4.31.56l-.07.08h3.47c.3,0,.58-.16.73-.43l9.5-17.36c-.11-.05-.15-.17-.16-.21Zm9.74-19.83c.11-.14.42-.11.51.05.05.08.04.19-.02.28l-.15.08h-.15l-.17-.21s0,.04.01.07l-.09-.07c-.01-.07,0-.14.05-.2Zm-1.19,2.35c.09,0,.19.04.26.12.07.07.1.17.09.28l-.28.11s-.05-.03-.15-.03l-.21-.18c0-.17.13-.29.3-.29Zm-7.86,7.84c.27,0,.44.46.44.46l-.18.23h0s-.02,0-.05.02c-.04.02-.11.06-.21.06h-.05s-.15-.17-.15-.17c0-.03,0-.07,0-.11,0-.03,0-.08,0-.09,0,.02.04.05.07.06l-.14-.22c.06-.21.19-.24.27-.24Zm-17.51,25.53s-.12.09-.24.09c-.03,0-.05,0-.08,0l-.1-.05c-.12-.13-.16-.36-.09-.53.08-.18.27-.27.49-.2l.12.16v.07c0,.16.01.34-.1.46Zm4.78-7.98c.04-.1.16-.33.47-.25l.13.17v.3l-.14.17s-.07.01-.1.01c-.11,0-.18-.04-.23-.07-.02-.01-.03-.02-.05-.02l-.11-.25s.02-.04.02-.05Zm-.17,7.62s0,.23-.3.23v-.15s.02,0,.03,0v-.03s-.06,0-.11,0c.02-.11.06-.14.11-.14v-.03s-.02,0-.03.02h0s.02-.02.03-.02v-.15c.07,0,.15.03.2.08.05.05.07.11.07.17h0Zm.76-1.65l-.17.15h-.38l-.17-.17v-.45l.14-.17c.26-.06.42.03.49.11.13.15.12.37.1.53Zm1.66-6.18s-.05,0-.07,0c-.15,0-.27-.07-.32-.2-.05-.13-.01-.29.1-.4l.14-.05c.08.01.35.08.3.49l-.14.15Zm.54-5.5c-.11-.02-.19-.07-.23-.15-.06-.11-.03-.23,0-.31.01-.03.02-.07.03-.1l.18-.15c.13,0,.24.08.29.21.06.15,0,.36-.11.46l-.15.04Zm.71,10s-.12.1-.25.1c-.02,0-.05,0-.08,0l-.11-.07c-.1-.14-.13-.3-.1-.5l.17-.15h.3l.17.16c.01.17.01.34-.1.46Zm3.25-10.67v-.17s0,0,0,0c-.06-.09-.1-.2-.08-.38.03,0,.05,0,.07,0v-.19c.11,0,.21.04.28.12.06.07.1.16.1.25,0,.2-.16.36-.37.36Zm.6-5.11s-.07,0-.12-.01l-.13-.19s.02.03.05.03l-.12-.17c0-.12.07-.31.43-.31.04,0,.09,0,.13,0l.16.19c-.02.15-.06.46-.39.46Zm1.02,8.12c-.07.02-.14.03-.21.03-.2,0-.36-.1-.43-.26-.07-.16-.04-.35.08-.5l.1-.06c.46-.09.5.26.54.44,0,.04.02.09.03.13l-.11.22Zm.29-6.44l-.12.05c-.13,0-.24-.08-.29-.21-.06-.15-.01-.36.1-.46l.12-.05c.14,0,.24.08.29.21.06.15.01.36-.1.46Zm2.67-3.49h-.22l-.17-.14c-.03-.17.02-.26.05-.33.01-.02.02-.04.02-.05l.19-.13c.08.01.35.08.3.49l-.17.15Zm.13-2.35s-.03.04-.05.07l-.19.09c-.07-.02-.11-.05-.14-.07l-.15-.17v-.15l.14-.17h.06s.02,0,.04,0l.13-.07c.05.01.2.05.24.19.04.12-.04.22-.09.29Z"/>
      <path class="cls-1" d="m11.57,63.8c-.16-.16-.16-.45,0-.62l.22-.02s.07.05.12.05l.06.05,2.03-2.8s-.05,0-.07,0c-.02,0-.04,0-.06,0l-.14-.23h-.02c-.11,0-.19-.08-.19-.19,0-.21.35-.41.68-.38l.14.1c.03.06.03.12.04.17l7.35-10.14h-.1s0,0,0,0c-.05-.03-.07-.05-.12-.05l-.18-.17v-.3l.17-.15s-.01.02-.02.03l.17-.13c.13,0,.24.08.3.21.03.07.03.15.02.23l12.79-17.63c.22-.3.21-.71-.02-1l-.02-.02s-.08.02-.12.02c-.17,0-.35-.12-.42-.2l-.05-.13c0-.07.04-.17.15-.24l-1.97-2.49c-.33-.42-.98-.42-1.3,0l-9.65,12.5c-.05.06-.09.12-.14.18l-.63.82c.09.02.18.05.26.1l.07.11c.03.13-.04.25-.09.35-.01.03-.03.07-.04.08,0-.04-.03-.1-.07-.12l.07.29c-.1.1-.2.12-.26.12-.14,0-.26-.09-.34-.24-.02-.03-.03-.08-.04-.12l-5.84,7.57c-.05.07-.09.12-.14.17l-6.92,8.98c-.03.06-.08.12-.14.18L.17,67.75c-.11.14-.17.32-.17.5v6.06c0,.46.37.83.83.83h2.1c.26,0,.51-.13.67-.34l7.98-11h0Zm20.1-29.19s0,.05.03.06l.07.28c-.15.16-.31.24-.45.24-.09,0-.22-.03-.33-.18l-.03-.1v-.23l.07-.14c.13-.1.29-.13.5-.11l.15.17Zm-.71-5.57l.17-.1c.13,0,.19.08.22.13.08.14-.01.31-.06.4l-.18.12c-.14,0-.2-.09-.22-.13-.08-.15.02-.32.07-.41Zm-.65,6.17s.09,0,.14.03c.06-.06.12-.12.19-.17l.11-.03c.11,0,.16.06.19.1.06.1.01.19-.02.26-.02.05-.04.09-.03.1l-.14.25s-.09,0-.13,0h0c-.26,0-.37-.1-.41-.21-.08-.05-.11-.12-.09-.19l.19-.15Zm-1.37,2.69s-.02.03-.03.07l.18-.14c.34.02.32.4.31.56l-.14.16s-.05,0-.07,0c-.11,0-.18-.05-.22-.08l-.28-.17v-.23l.18-.17s.05,0,.07,0Zm-.45-1.03c.06-.06.13-.09.21-.09v.18c.06,0,.13.07.16.29-.08.03-.15.05-.19.05v.17c-.18,0-.3-.12-.3-.29,0-.11.05-.22.13-.3Zm-6,4.85l.17-.04c.08.03.18.06.22.15.05.09.02.17,0,.22-.01.03-.02.06-.02.1l-.19.16c-.13-.02-.23-.09-.27-.21-.04-.13,0-.28.1-.38Zm-.48,1.02c.12-.04.17.06.16.16l.18-.02c0,.2-.14.36-.32.36v-.2s-.06.02-.1,0c0-.12-.04-.29.07-.3Zm-6.09,13.51c.06-.15.2-.24.4-.2l.08.04c.12.11.16.31.1.47-.05.13-.17.21-.31.21,0,0-.05,0-.09,0l-.09-.04c-.12-.11-.16-.32-.1-.47Zm-.43-4.96v.19s.03-.01.04,0c.03.08.02.12,0,.16-.01.01-.02.05-.02.08h-.07s-.05.04-.06.07c0,0,0,0-.01-.01v.18l-.14-.06s-.07-.11-.07-.18c0-.17.1-.41.33-.41Zm-1.4,3.29c.09-.1.22-.13.41-.11l.15.17v.3l-.14.17s-.07.01-.1.01c-.11,0-.18-.04-.23-.06-.02-.01-.04-.02-.05-.02l-.13-.15c-.01-.12.01-.23.08-.3Zm-12.34,15.27s-.12.1-.25.1c-.02,0-.05,0-.08,0l-.09-.05c-.12-.12-.16-.31-.09-.46.07-.18.27-.27.49-.21l.13.15c.01.17.01.34-.1.46Zm1.75.83l-.17.17h-.22l-.17-.17v-.23l.17-.17h.22l.17.17v.23Zm7.7-10.15l-.13-.17v-.3l.17-.17h.3l.17.14c.04.18.02.31-.06.4-.04.06-.13.12-.29.12-.05,0-.1,0-.17-.02Z"/>
      <path class="cls-1" d="m1.48,62.24l1.38-1.79c-.09-.01-.17-.03-.22-.11-.07-.1-.04-.21-.02-.3,0-.03.01-.05.02-.08l.24-.12c.07.03.12.09.16.15.03-.45-.31-.89-.83-.89H.83c-.46,0-.83.37-.83.83v1.8c0,.79,1,1.13,1.48.51Z"/>
      <path class="cls-1" d="m.83,56.77h4.46c.26,0,.5-.12.65-.32l3.99-5.16c.42-.54.03-1.33-.65-1.33H.83c-.1,0-.19.02-.28.06l-.15.13h-.08c-.19.15-.32.37-.32.64v3.74l.11.16c-.01.06-.02.13-.02.2,0,.12-.02.28-.09.41v.66c0,.46.37.83.83.83Zm6.72-5.21s.04,0,.06,0v-.19c.2,0,.33.23.33.37,0,.07-.02.13-.07.17-.04.04-.1.07-.17.07v-.19s-.03.02-.07,0c-.03-.01-.13-.16-.08-.23Zm-1.72-.25l.26-.02c.08.07.16.15.23.23l.05.1c.01.13-.01.23-.08.3-.07.08-.17.12-.31.12-.03,0-.06,0-.1,0l-.1-.05c-.28-.26-.04-.56.05-.67Zm-.71,1.75l.14-.16c.2-.04.34.04.4.2.06.16.02.36-.1.47l-.13.05c-.34-.02-.32-.4-.31-.56Zm-1.41-1.5s.04,0,.06.01v-.19c.09,0,.18.03.24.1.06.06.09.15.09.23,0,.19-.14.33-.34.33v-.19s-.03.01-.05,0v-.3Zm-3.19-.27c.02-.15.12-.28.31-.4h.16c.17.06.21.29.18.46-.04.19-.17.32-.33.32-.04,0-.08,0-.12-.02l-.06-.04c-.12-.12-.14-.24-.13-.32Z"/>
      <path class="cls-1" d="m.78,43.28h.17s-.17-.01-.17-.01c0,0,0,0,0,.01Z"/>
      <path class="cls-1" d="m.83,47.62h5.06c-.02-.06-.02-.13-.01-.23l.17-.15h.22l.13.28s-.02.04-.03.09h5.98c.26,0,.5-.12.65-.32l3.98-5.15c.42-.54.03-1.33-.65-1.33h-1.23s0,.02,0,.03l-.26.08s-.02-.02-.03-.02l-.07.04c-.11-.03-.16-.08-.19-.13H.83c-.46,0-.83.37-.83.83v5.15c0,.46.37.83.83.83Zm12.5-3.39c.17-.02.28.05.33.1.08.09.11.21.09.38l-.15.15s-.04,0-.06,0c-.14,0-.22-.06-.26-.11-.08-.09-.11-.21-.09-.38l.15-.15Zm-1.5-2.84l.17-.17h.3l.17.15c.01.12-.01.23-.08.3-.07.08-.18.12-.31.12-.03,0-.06,0-.1,0l-.15-.17v-.23Zm-.64,1.57c.06,0,.16.02.26.12l.05.13c0,.28-.12.47-.22.63l-.03.05-.19.08c-.21-.05-.32-.25-.29-.51.03-.24.19-.5.42-.5Zm-5.82,3.23s.04,0,.05,0l.19.14c.03.14-.04.22-.07.26l-.22.16c-.12-.03-.16-.13-.18-.17,0,0,.03.03.07.03l-.17-.2c.04-.2.24-.21.32-.21Zm-1.37-3.56c.09-.1.14-.15.14-.27l.23-.16c.1.03.17.1.21.19.1.23-.04.55-.17.83l-.02.04-.11.09s-.07.02-.11.02c-.16,0-.23-.11-.26-.16l-.14-.21c.04-.19.14-.3.23-.38Zm-.99,3.49l.12.15c0,.16.03.53-.31.56h-.02c-.24,0-.37-.19-.37-.36,0-.22.23-.45.57-.35Zm-.73-3.45c-.35.26-.3-.38,0,0h0Zm-.32,2.31l.17-.14h.3l.17.16c.01.23.01.44-.12.58l-.15.05c-.16-.02-.25-.1-.29-.17-.09-.12-.11-.27-.08-.48Zm-1.34-1.93s0,0,.01,0v-.18c.2,0,.32.2.32.4,0,.1-.03.19-.1.26-.06.06-.13.09-.21.09v-.2s-.05.02-.1,0c-.02-.17.01-.29.08-.38Z"/>
      <path class="cls-1" d="m74.3,40.82h-26.92c-.69,0-1.07.79-.65,1.33l3.98,5.15c.16.2.4.32.65.32h22.95c.46,0,.83-.37.83-.83v-5.15c0-.46-.37-.83-.83-.83Zm-23.63,1.37s-.09.02-.12.03l-.18-.28s.03-.07.04-.1c.03-.11.11-.34.38-.34.03,0,.07,0,.11.01l.13.19s-.03-.03-.05-.04l.12.21c-.06.24-.29.28-.44.32Zm4.81,4.94l-.27.12c-.05-.04-.08-.08-.11-.11l-.17-.27c.03-.05.05-.08.05-.13l.16-.18h0c.12,0,.19.04.23.06.03.02.03.02.04.02l.2.12c.06.23-.08.33-.14.37Zm.76-3.6c-.07.08-.17.13-.29.13s-.24-.05-.32-.13l-.04-.18c.06-.16.21-.33.4-.33.07,0,.16.02.26.12l.05.09c.03.15-.02.25-.07.3Zm2.88,3.73s-.04.03-.05.04c0-.01.01-.04,0-.05l-.24.23s-.08-.04-.13-.05c-.15-.05-.42-.14-.4-.48l.11-.15c.18-.06.34.05.43.12.01,0,.02.02.04.03l.17-.08s.17.05.19.18c.02.12-.08.19-.12.23Zm6.9-1.99c-.05.06-.14.12-.3.12-.03,0-.07,0-.11,0l-.14-.14c-.02-.16,0-.29.08-.38.06-.07.18-.15.42-.11l.14.14c.02.16,0,.29-.08.38Zm1.68-2.97s-.07.01-.1.01c-.11,0-.18-.04-.23-.07-.02-.01-.04-.02-.05-.02l-.13-.14c-.03-.14.04-.22.07-.26l.16-.16c.19-.03.28.05.33.1.08.09.11.21.09.38l-.14.15Zm1.94,4.17c-.05.19-.19.3-.36.3-.05,0-.11-.01-.17-.04l-.1-.12c-.06-.28.09-.4.17-.47.04-.03.05-.05.06-.06l.26-.11c.15.09.21.29.15.49Zm.47-1.91l-.08-.05c-.28-.31-.02-.63.09-.77l.05-.06.17-.06c.2.04.32.26.3.52-.03.26-.19.43-.41.43-.04,0-.08,0-.12-.02Zm.93,2.11l-.13-.13c0,.1-.07.18-.09.21l-.14.07h-.15l-.14-.27s.05-.07.05-.12l.21-.17c.12.03.2.09.23.17,0-.1.04-.17.08-.21.12-.14.38-.14.52.01l.04.14c0,.08-.08.35-.49.3Z"/>
      <path class="cls-1" d="m15.75,28.71l-.18.02h.18s0-.01,0-.02Z"/>
      <path class="cls-1" d="m74.09,31.73c-4.61,1.33-11.14.84-17.67-1.21l-.18.11c-.09-.03-.15-.08-.19-.12l-.14-.15c-2.44-.8-4.87-1.81-7.19-3.03-1.86-.97-3.62-2-5.32-2.99-1.07-.62-2.1-1.22-3.12-1.79,0,.01-.01.02-.02.03-.04.04-.1.08-.21.08-.05,0-.1,0-.16-.03l-.12-.15c0-.07,0-.15,0-.21-.49-.27-.98-.53-1.47-.78,0,.03,0,.06,0,.08l.07.13c-.06.21-.17.26-.26.26-.09,0-.16-.05-.22-.1-.02-.02-.05-.04-.07-.05l-.09-.2c.02-.06.05-.1.07-.13l.17-.15h0c-4.91-2.49-9.51-3.79-14.86-1.69,0,.03.02.05.02.08,0,.15-.11.3-.32.3v-.19s-.03.01-.06,0c.03-.04.05-.06.05-.08-1.32.55-2.7,1.31-4.13,2.31-1.1.77-2.17,1.48-3.21,2.15,0,.02,0,.03,0,.04,0,0,0-.02-.02-.03,0,0-.02.01-.03.02l.11.19c-.08.18-.23.29-.4.29-.1,0-.19-.05-.27-.12-6.75,4.27-11.99,6.48-14.34,7.36-.32.12-.53.43-.53.77v4.92c0,.46.37.83.83.83h11.75c.07-.05.16-.07.28-.05l.09.04s0,0,0,0h6.45c.26,0,.5-.12.66-.32l10.65-13.81c.21-.28.55-.44.91-.44.34-.04.7.15.92.44l4.81,6.1s.06.06.08.09c.04.02.06.06.08.09l4.05,5.12c.07.07.13.15.19.25l1.71,2.16c.16.2.4.31.65.31h30.18c.46,0,.83-.37.83-.83v-5.12c0-.54-.51-.95-1.03-.8ZM.3,32.98s-.06,0-.09,0l-.13-.13c-.03-.17.02-.26.05-.33.01-.02.02-.03.02-.05l.18-.13c.18.01.31.15.3.33,0,.18-.15.32-.33.32Zm1.47,3.49l-.04.14c-.05.06-.12.08-.17.1-.02.01-.01,0,0-.03l-.23.13c-.13-.05-.22-.13-.25-.23-.05-.17.06-.33.14-.45.03-.04.07-.1.08-.12l.13-.12h.06s.11,0,.17.07h.04l.14.27s-.07.11-.05.25Zm3.9,1.76s-.12.1-.25.1c-.02,0-.05,0-.07,0l-.1-.05c-.11-.11-.14-.26-.09-.4.07-.16.24-.27.43-.27l.18.16c.01.17.01.34-.1.46Zm2.81-4.78c-.06.11-.19.18-.37.2l-.19-.18h.17s-.17,0-.17,0c0-.17.02-.53.38-.53l.17.1c.07.17.07.3.01.41Zm2.03-.17c-.03.06-.09.17-.09.21l-.16.24h-.3l-.17-.18c0-.22.09-.34.16-.42.06-.09.08-.11.01-.25l.03-.19c.05-.06.12-.08.17-.1.04-.01.02,0,.01.03l.26-.11c.37.23.18.58.08.77Zm2.95-4.68l-.17-.07c-.1-.13-.13-.29-.11-.48,0,0-.02-.02-.03-.03l-.03-.2c.07-.15.22-.23.44-.24l.08.12s.08-.03.13-.04l.2.21-.02.1c-.06.24-.13.57-.49.63Zm.82,7.91l-.21.14c-.06-.02-.11-.05-.13-.07l-.15-.21c.02-.06.05-.1.07-.13l.21-.15c.07.01.11.05.14.07l.14.2c-.01.07-.05.12-.07.14Zm.97-10.8s-.13.11-.26.11c-.02,0-.04,0-.06,0l-.15-.16s0-.07,0-.1c0-.03,0-.08,0-.1,0,.02.04.05.07.06l-.15-.18c0-.15.11-.25.25-.25.1,0,.19.05.28.09l.12.15c.02.17,0,.3-.09.39Zm.33,3.02c0-.05,0-.12.05-.19.05-.09.13-.14.23-.14v.19s.04-.02.07,0c.03.16-.05.2-.07.3,0,0,0,0-.01,0v.18c-.15,0-.25-.13-.25-.33Zm.71,8.4c-.06.14-.19.22-.35.22-.04,0-.09,0-.14-.02l-.13-.15c-.01-.16-.01-.34.1-.46.05-.05.14-.12.32-.09l.09.05c.12.12.16.31.1.46Zm2.37-13.35s-.08,0-.11,0c-.16,0-.25-.07-.3-.12-.08-.09-.11-.22-.08-.38l.14-.15c.23-.03.36.05.42.11.08.09.11.22.08.38l-.14.14Zm2.1,1.17c-.01.21-.17.36-.37.36-.05,0-.1-.01-.16-.03l-.11-.12c-.07-.25.05-.36.12-.42.01-.01.03-.03.03-.03l.19-.13c.19.02.31.18.3.38Zm-.77-2.69s.03.01.05.01v-.19c.2,0,.35.16.35.37,0,.09-.03.17-.08.24-.06.08-.16.13-.26.13v-.19s-.03.02-.06.01c-.14-.14-.01-.19,0-.38Zm.24,7.94c-.04.16-.1.45-.43.45h-.05s-.12-.07-.12-.07c-.12-.15-.13-.37-.05-.55.11-.21.34-.32.6-.25l.1.26s-.04.1-.05.16Zm.81,5.01c-.05.05-.14.12-.29.12-.04,0-.08,0-.12-.01l-.14-.17c0-.15.01-.55.4-.55.03,0,.07,0,.1.01l.14.15c.02.13.02.33-.09.46Zm.05-7.62c-.03.06-.04.09-.03.15l-.16.2h-.03c-.15,0-.24-.06-.31-.11-.04-.03-.06-.04-.08-.04l-.13-.21c.03-.12.08-.18.11-.23.01-.01.01-.04-.02-.11l.1-.24c.18-.05.3.02.35.06l.24.14c.05.2,0,.31-.05.39Zm1.56-1.55l-.22.16c-.07-.02-.11-.05-.13-.07l-.14-.22c.06-.17.19-.27.37-.27l.18.14c.03.14-.04.23-.07.27Zm4.04-2.8c-.09-.03-.06-.2,0-.23.16-.07.17.28,0,.23Zm.87.05c-.05.06-.12.1-.21.1-.14,0-.26-.09-.29-.22-.02-.09,0-.22.15-.3l.08-.02h.15l.17.14c.03.13,0,.23-.05.31Zm8.55,4.25s0,0,0,0l-.02.18c-.19,0-.32-.17-.32-.4,0-.11.03-.21.07-.29.07-.12.17-.19.29-.19v.2s.04-.03.06-.01c-.15.18.13.36-.08.53Zm3.66-3.11l.15.05c.16.17.11.32.08.4-.01.04-.03.07-.03.1l-.2.16c-.2-.03-.37-.24-.36-.44,0-.13.11-.28.35-.28Zm-.93,5.83l-.17.16h-.23l-.12-.05c-.16-.17-.16-.45,0-.61l.1-.05c.18-.03.27.04.32.09.11.12.11.29.1.46Zm.24-5.34h-.06c-.1,0-.17-.04-.2-.07l-.16-.21c.03-.12.13-.17.17-.18,0,0-.03.03-.03.07l.13-.16h.06s.2.01.22.22v.17s-.14.17-.14.17Zm.8,5.8h-.23l-.17-.14c-.03-.16.02-.26.05-.32.01-.02.02-.04.02-.05l.19-.13c.11.02.35.09.3.49l-.17.15Zm.02-4.89l-.27.19s-.07-.05-.12-.05l-.18-.17v-.23l.07-.14c.14-.1.29-.13.5-.1l.14.13c.06.23-.08.33-.14.37Zm.26,0c-.07-.12-.07-.28.01-.47l.15-.1h0c.21,0,.37.1.44.27.07.16.04.34-.08.47l-.15.05c-.18-.03-.3-.1-.37-.22Zm1.17,7.75l-.21.14c-.07-.02-.11-.05-.13-.07l-.14-.2c.01-.07.05-.11.07-.14l.21-.15c.07.02.11.05.14.07l.14.21c-.01.07-.05.11-.07.14Zm.12-5.98c-.04.16-.12.33-.48.33h-.04s-.11-.05-.11-.05c-.06-.05-.08-.12-.1-.18-.01-.03.01-.01.03,0l-.13-.22c.09-.26.36-.28.56-.3.08,0,.17-.02.22-.03l.14.31c-.07.04-.08.07-.1.15Zm.29-1.22c.04-.18.26-.31.43-.31h.07s.12.11.12.11c.02.04.07.18.01.3-.06.11-.17.14-.23.15-.02.01,0-.02,0-.05l-.24.12c-.16-.08-.2-.22-.17-.32Zm-.1,1.8l-.02-.22c.03-.05.05-.08.05-.12l.12-.17c.23-.07.37.06.43.12l.2.31c-.11.12-.3.2-.47.2-.12,0-.23-.04-.3-.12Zm1.19,7.81l-.17.15h-.15l-.17-.14c-.03-.12,0-.2.04-.25.08-.1.21-.11.3-.11l.22.21c-.02.06-.05.1-.07.13Zm.19-7.54c0-.14.05-.23.09-.28.13-.14.38-.14.5,0l.05.14c-.03.19-.17.3-.39.3-.03,0-.06,0-.1,0l-.15-.16Zm.92,2.93c-.06.03-.12.04-.18.04-.28,0-.49-.29-.49-.44l.04-.04c-.09-.11-.1-.21-.04-.32l.06-.06c.11-.07.25-.08.36-.07.01,0-.03.02-.04.06l.3-.02c.08.12.08.24.07.36,0,.09,0,.18.02.3l-.09.19Zm.27-1.45c-.07.19-.3.31-.48.34l-.15-.05c-.11-.12-.14-.27-.08-.41.08-.18.28-.29.53-.26l.1.05c.09.09.11.21.07.33Zm1.97,1.85h-.06s-.16-.14-.16-.14c-.03-.13,0-.22.05-.28l-.13-.13v-.3l.15-.17c.23-.03.36.05.42.12.08.09.11.22.08.38h0s.08.05.11.09l.02.2c-.06.11-.19.24-.47.24Zm1.88-1.3l.17-.17h.23l.17.17v.23l-.17.17h-.23l-.17-.17v-.23Zm.77,6.03c-.1.05-.19.07-.28.07-.15,0-.26-.07-.38-.14l-.11-.14c-.05-.36.19-.49.32-.55l.08-.02c.44,0,.46.45.47.61l-.1.16Zm.88.37c-.16,0-.29-.14-.38-.24l-.04-.21c.06-.13.15-.19.25-.19.11,0,.18.08.23.14.01.02.04.04.05.05v.04s.17.16.17.16c-.06.24-.21.26-.27.26Zm.36-1.91c-.07.08-.17.13-.29.13-.12,0-.24-.05-.32-.13l-.04-.09c-.04-.24.11-.34.18-.39.02-.01.04-.03.04-.03l.2-.22c.13.03.21.14.2.27,0,0,0,0,0,.01.05.04.09.1.09.19.03.12-.02.21-.07.27Zm.73-.47c-.04.12-.16.19-.31.19-.09,0-.18-.03-.25-.08l-.07-.11c-.03-.14.04-.23.07-.27l.2-.16c.09.02.15.07.18.13l.05-.02c.17.13.14.27.12.32Zm.28-3.17c-.02-.13-.02-.33.09-.46.06-.07.18-.14.41-.1l.14.15c.02.13.03.33-.09.46-.05.05-.14.12-.29.12-.04,0-.08,0-.12-.01l-.14-.15Zm1.05,3.06c-.05.13-.22.18-.41.09,0,.01,0,.02,0,.03,0,.03,0,.06,0,.08l-.19.19c-.08-.01-.35-.08-.3-.49l.11-.14c.08-.03.15-.03.21-.01.11-.2.3-.17.4-.05.01.01.02.03.03.04l.05-.02c.13.11.11.22.09.27Zm.72-.36c-.07.08-.17.13-.28.13-.09,0-.18-.04-.25-.1l-.05-.1c-.01-.13.01-.23.08-.3.09-.09.22-.13.41-.11l.15.13c.03.14,0,.26-.07.35Zm-.07-.71s-.02,0-.01-.02l-.23.12c-.13-.05-.19-.17-.17-.3.03-.18.24-.34.43-.34h.06s.13.13.13.13c.08.29-.14.38-.21.41Zm3.18-.62c-.09.1-.19.12-.26.12-.11,0-.21-.06-.28-.1-.03-.02-.06-.04-.09-.05l-.11-.13c-.03-.14.04-.23.07-.27l.16-.16c.33-.03.54.15.56.46l-.05.13Zm2.82.67s-.04-.02-.05-.02l-.13-.14c-.03-.14.04-.22.07-.26l.16-.16c.19-.02.28.05.33.1.08.09.11.21.09.38l-.14.15s-.07.01-.1.01c-.11,0-.18-.04-.23-.06Zm.92,4.48l-.17.17h-.3l-.17-.14c-.03-.16,0-.29.08-.38.06-.07.18-.15.42-.12l.15.17v.3Zm1.76-2.21s-.03.04-.05.05c0,.03,0,.05-.02.08-.02.04-.06.11-.18.13h-.03s-.15,0-.15,0l-.13-.28s.04-.06.03-.18l.17-.17h.22l.17.14c.02.09,0,.17-.04.24Zm1.04,1.25c-.07.09-.18.14-.3.14-.11,0-.23-.05-.3-.12l-.05-.12v-.23l.17-.17h.37l.16.12c.04.14.02.27-.05.37Zm.96,1.08c-.07.1-.2.12-.31.12l-.03-.08c-.21-.03-.21-.25-.22-.32,0-.02,0-.04,0-.05l.17-.2h.23l.17.14s.01.06.02.08c.02.09.05.2-.02.3Zm10.71-5.16l-.25.15c-.15-.07-.23-.22-.25-.44l.26-.16c.05.03.08.05.12.05l.18.14c.03.14-.04.22-.07.26Z"/>
      <path class="cls-1" d="m20.2,22.45h.18s-.17-.01-.17-.01c0,0,0,0,0,.01Z"/>
      <polygon class="cls-1" points="0 21.62 .11 21.61 0 21.61 0 21.62"/>
      <path class="cls-1" d="m20.67,5.93l.17-.02h-.18s0,.01,0,.02Z"/>
      <path class="cls-1" d="m42.12,14.42s0,.02-.01.02l-.17.06c-.07-.02-.11-.05-.13-.07l-.15-.17v-.03C31.15,9.96,24.99,4.42,22.26,1.51v.18l-.16.17h-.03c-.23,0-.42-.13-.49-.32-.03-.1-.03-.21.01-.3-.09,0-.21-.04-.32-.2l-.03-.11c0-.15.03-.3.1-.43-.05-.06-.1-.12-.14-.17-.16-.18-.38-.29-.63-.29H2.91c-.02.18-.15.38-.31.4h-.03c-.11,0-.25-.09-.25-.36,0-.02,0-.02,0-.04h-.14l.12.12c.04.23-.02.36-.08.43-.06.08-.16.12-.26.12-.13,0-.26-.07-.34-.19l-.03-.15c.02-.07.09-.26.28-.33H.83C.37.03,0,.4,0,.86v5.11s.01,0,.02,0c.02,0,.04,0,.05,0l.16.17s-.01,0-.02,0l.12.2c-.03.12-.13.17-.17.19,0,0,.03-.04.03-.07l-.19.16v6.99c.28.06.27.39.26.54l-.14.16s-.07.01-.1.01c-.01,0-.02,0-.03,0v2.36s.04,0,.05,0c.03,0,.06,0,.09,0,.02,0,.04,0,.06,0l.19.25c-.05.1-.16.3-.35.3-.01,0-.03,0-.04,0v4.15s.03.02.04.03c.05.07.08.15.08.24,0,.11-.04.21-.11.27v.88l.1-.16c.18.01.31.16.3.34,0,.19-.14.38-.36.38h-.04s0,5.11,0,5.11c0,.59.6.99,1.14.76,3.23-1.34,9.15-4.13,16.2-9.05.95-.66,1.87-1.22,2.78-1.7h-.02c-.02-.15,0-.26.06-.34.04-.05.11-.1.23-.1l.19.17v.03c5.37-2.67,10.1-2.3,14.64-.63v-.02c.19-.02.29.05.34.1.01.01.01.03.02.05,3.02,1.16,5.97,2.86,8.97,4.61,1.68.98,3.42,2,5.23,2.94,8.7,4.58,19.24,6.14,24.83,3.8.3-.13.49-.43.49-.76v-8.22c-.34.01-.67.01-.99.01-13.43,0-23.96-2.46-32.01-5.67ZM.77,4.27s-.04,0-.05,0l-.19-.16c0-.13.02-.23.09-.3.05-.05.13-.11.27-.11h.05s.13.27.13.27c0,0,0,0-.01.01l.04.06c-.03.21-.25.22-.32.22Zm.28-3.45c0-.24.21-.41.44-.35l.07.04c.23.22.07.43,0,.51-.02.02-.04.04-.05.07l-.16.09c-.18,0-.32-.16-.32-.36Zm.29,11.15c-.02-.18.07-.33.22-.35.02,0,.06-.01.09-.01.12,0,.21.06.25.17.07.18-.04.44-.12.51l-.08.04h-.06c-.18,0-.3-.18-.31-.36Zm.83,1.82l-.21.02c-.05-.03-.08-.05-.12-.05l-.18-.15c-.02-.19.04-.3.09-.36.15-.17.45-.09.53.11.06.14.02.3-.11.42ZM20.49,1.57s.07-.11.08-.13l.25-.12c.1.06.16.15.17.27.02.22-.13.46-.22.54l-.16.04c-.12-.04-.2-.1-.24-.19-.05-.15.04-.28.11-.39Zm-1.68.9h.23s.05.03.15.03l.17.16c0-.06,0-.13.03-.18.06-.16.2-.24.4-.2l.08.04c.12.11.16.31.1.47-.06.16-.2.25-.4.2l-.08-.04s-.08-.11-.11-.18c-.04.12-.12.19-.18.24-.03.02-.05.04-.06.06l-.14.07c-.13,0-.24-.08-.29-.21-.06-.15,0-.36.11-.46Zm.72,1.34c-.07.14-.23.23-.38.23-.11,0-.2-.04-.27-.12l-.03-.2c.12-.23.48-.3.65-.11l.03.2Zm-2.35-2.54c.09-.15.26-.23.49-.2l.13.26s-.03.1-.03.16c-.02.15-.06.46-.38.46h-.06s-.13-.1-.13-.1c-.1-.2-.11-.42-.01-.58ZM4.1,24.55l-.18.13c-.18-.01-.31-.15-.3-.33,0-.21.19-.36.43-.31l.13.13c.03.17-.02.26-.05.33-.01.02-.02.04-.02.05Zm.59,2.61c-.02.12-.06.38-.35.38h-.05s-.15-.15-.15-.15c-.01-.12-.03-.3.07-.42.05-.06.17-.13.37-.07l.12.2v.06Zm5.36-7.25l-.21.17h0s.05,0,.07-.02l-.08.09h-.05c-.14,0-.25-.11-.25-.28,0-.24.23-.39.43-.26l.08.14v.15Zm1.69,2.9l-.15.05c-.16-.02-.25-.1-.3-.17-.08-.11-.11-.28-.08-.48l.13-.14c.21-.05.39.04.47.22.07.17.04.39-.07.52Zm3.34-1.69c-.07.11-.19.17-.34.17-.05,0-.1,0-.15-.02l-.13-.13c-.08-.37.12-.52.25-.6.04-.03.07-.05.09-.07l.28.04c.03.07.14.39,0,.61Zm-3.34-3.58c-5.82,0-10.09-6.74-5.46-12.79.05-.07.12-.14.2-.19,6.05-4.5,12.7-.23,12.7,5.55,0,4.09-3.34,7.42-7.44,7.42Zm8.7-3.79s0-.01,0-.02l-.21.17c-.21-.05-.21-.27-.21-.38,0-.03,0-.05,0-.08l.17-.19h.22l.16.13c.06.23-.08.33-.14.37Zm.17-.62s-.03.03-.03.03l-.32.03s-.03-.04-.03-.04h0c-.05,0-.13.04-.2.07-.04.02-.08.04-.11.05l.04.18c-.13.19-.31.32-.56.37l-.16-.05c-.16-.17-.16-.45,0-.61l.2-.03c.1.05.12.03.16.02.08,0,.14,0,.21.01l-.08-.18c.05-.03.09-.13.13-.22,0,0,0,0,0,0,0,0-.01,0-.02,0-.02,0-.04,0-.05,0,.02,0,.05-.03.05-.07l-.21.15c-.11-.03-.17-.13-.16-.24.02-.16.23-.37.42-.37.1,0,.18.05.23.14l.02.06s0,.05,0,.07h.11s.04.04.04.04h.05c.1,0,.22,0,.33.07l.07.1c.07.25-.05.36-.12.42Zm.22-7.23c0,.06-.01.18-.09.26-.05.05-.11.07-.18.07v-.19s-.04.02-.07,0c-.03-.16.05-.2.07-.3,0,0,0,0,.01,0v-.18c.15,0,.25.13.25.33h0Zm.16-2.26s-.03.04-.04.05l-.2.11c-.12-.03-.16-.13-.18-.17,0,0,.03.03.07.03l-.17-.14c-.02-.1.02-.16.05-.19.07-.08.18-.08.23-.08h.06s-.04.01-.07.05c-.01.02-.02.03-.02.05,0,0,.01,0,.02,0l.19-.23c.13.05.17.13.19.19.04.15-.06.27-.13.35Zm5.42,8.18l-.16.04c-.12-.03-.21-.1-.29-.16-.04-.03-.08-.06-.12-.08l-.08-.21c.04-.1.15-.42.55-.42.02,0,.05,0,.08,0l.1.05c.09.09.13.2.13.32,0,.18-.11.36-.21.45Zm1.45-1.39c-.08.09-.2.15-.35.16l-.18-.21c.05-.17.12-.46.45-.5l.19.16c.01.17-.02.31-.11.4Zm1.85,2.11h-.06c-.1,0-.17-.04-.2-.07l-.13-.27c.04-.06.08-.09.11-.11l.22-.19c.21.05.21.27.2.37,0,.03,0,.05,0,.08l-.14.19Zm2.23-.58c-.06.09-.16.14-.27.14-.2,0-.44-.17-.47-.4-.01-.11.02-.38.55-.48l.19.11c.09.28.09.49,0,.62Zm5.54,2.42h-.23c-.11-.09-.18-.24-.18-.37,0-.1.03-.19.1-.25l.12-.04c.14,0,.24.08.29.21.06.15.01.36-.1.46Zm1.59,2.18c-.08.08-.2.13-.32.13-.19,0-.36-.11-.42-.27v-.14c.09-.14.2-.37.57-.31l.15.18s0,.02.02.05c.03.05.07.13.06.26l-.05.1Zm.75-.05c-.03.09-.1.27-.33.27-.04,0-.09,0-.14-.02l-.13-.17v-.23l.17-.17h.3l.15.26s-.02.04-.02.06Zm24.52,9.41s.02,0,.03,0v-.14c.07,0,.15.03.2.08.05.05.08.11.08.17h0s0,.23-.3.23v-.15s.02,0,.03,0v-.03s-.06,0-.11,0c.02-.11.06-.14.11-.14v-.03s-.02,0-.03.02h0Zm-17.4-4.9c-.07.08-.18.12-.32.12-.03,0-.06,0-.09,0l-.13-.26s.02-.04.03-.06c.04-.1.16-.33.47-.25l.12.14c.01.13-.01.23-.08.3Zm2.8,1.87l-.04-.12c0-.09.03-.16.09-.22-.14.03-.31,0-.42-.11l-.05-.11c0-.1.03-.2.1-.28.14-.15.41-.17.54-.02.05.05.1.15.08.3l-.05.11s-.01.01-.02.01c.14-.03.31.03.4.12l.05.12c0,.18-.15.31-.35.31-.12,0-.25-.05-.32-.13Zm1.26,2.07c-.06.15-.2.26-.36.26-.11,0-.21-.05-.29-.14l-.04-.08c-.03-.13-.01-.24.05-.33.09-.13.26-.16.39-.18l.15.04c.13.11.17.28.11.43Zm3.16-.35h-.3l-.15-.25c.03-.07.02-.14.01-.22-.01-.1-.03-.23.05-.33.06-.08.16-.12.3-.14l.18.12c.04.13.04.22.05.34,0,.07.01.16.03.29l-.17.19Zm.83-5.07l-.15.09h-.23l-.15-.09c-.05-.1-.05-.2,0-.28.11-.17.42-.17.53,0,.05.08.05.18,0,.28Zm2.81,5.82s-.04,0-.06,0c-.14,0-.22-.06-.27-.11-.08-.09-.11-.21-.09-.38l.15-.15c.19-.02.28.05.33.1.08.09.11.21.09.38l-.15.15Zm4.95,1.65c-.1,0-.2-.04-.27-.12l-.03-.2c.12-.23.48-.3.65-.11l.03.2c-.07.14-.23.23-.38.23Zm1.44-.82c-.2,0-.4-.21-.4-.41,0-.08.03-.15.08-.2.07-.07.17-.11.31-.11v.17s0,0,0,0c0,.13.05.2.15.23-.03.11-.08.15-.14.15v.17Zm.61,2.93l-.07-.03c-.18-.07-.46-.16-.49-.49l.22-.18c.2.06.16.06.35,0l.17.28c.02.08.04.15.05.25l-.23.17Zm3.32-6.04l-.17.17h-.23l-.17-.17v-.23l.17-.17h.23l.17.17v.23Zm4.57,1.52s.13-.11.26-.11h.06s.1.05.1.05c.11.11.15.26.1.39-.05.13-.19.22-.35.22-.04,0-.08,0-.13-.02l-.13-.15c-.02-.17,0-.3.09-.39Zm-2.99,1.12l-.12.16h-.05c-.11.05-.25.08-.38.08h0c-.14,0-.26-.04-.34-.13v-.22c.13-.19.27-.23.5-.31l.17-.05.23.16v.3Zm1.87-4.83l-.12.1s-.06.01-.09.01c-.17,0-.23-.13-.25-.18,0,0,.02.02.06.02l-.16-.14.05-.18c.11-.13.37-.06.48.1.05.08.06.18.03.27Zm1.65,7.83c-.06.08-.17.11-.3.1h-.05s.08-.06.07-.11l-.24.17c-.16-.08-.19-.2-.17-.3.05-.23.39-.32.6-.24l.1.1s.07.17,0,.28Z"/>
      <path class="cls-1" d="m74.19,9.22c-2.12.21-4.15.3-6.07.3-.54,0-1.08,0-1.61-.02l-.04.05h-.03c-.09,0-.16-.03-.2-.06-5.82-.19-10.64-1.23-14.52-2.58l.12.23s-.01.02-.02.02l.04.06c-.03.15-.14.22-.24.22s-.21-.06-.28-.16c-.06-.1-.07-.21-.03-.31l.16-.1h.13c-6.22-2.18-9.97-5.12-11.48-6.47-.03.12-.1.2-.16.24-.01.01-.03.02-.04.04l-.13.06c-.13,0-.24-.08-.29-.21-.06-.14-.03-.34.05-.47-.05,0-.1-.03-.16-.03h-11.76c.03.12.02.23-.03.32-.05.08-.15.17-.36.17-.04,0-.08,0-.13-.01l-.15-.15c-.01-.13.02-.23.06-.32h-.46l.14.15v.15l-.17.17h-.23l-.14-.27c.03-.05.05-.08.05-.13l.1-.08h-.17c-.63,0-.98.64-.76,1.15v-.17l.17-.17h.24s.01-.04.02-.05c.02-.04.03-.08.02-.13l.18-.2c.13,0,.24.08.29.21.06.15.01.36-.1.46l-.16.04s0,0,0,0c0,.1-.03.2-.1.28-.04.05-.13.1-.25.11,2.73,2.5,7.26,6,13.86,9.1.06-.02.11-.03.15-.03l.2.17v.02c8.18,3.79,19.47,6.95,34.4,6.93.46,0,.84-.38.84-.84v-.61s-.04,0-.06.01l-.19-.22c.02-.07.08-.24.24-.32v-5.74c0-.5-.43-.88-.93-.83ZM26.53,1.69s-.05-.01-.08-.01v.19c-.12,0-.24-.05-.32-.13-.08-.08-.12-.18-.12-.28,0-.16.11-.32.37-.32v.19s.04-.02.09-.01c-.03.18.14.16.08.38Zm5.35,3.51s-.06.06-.07.07l-.19.12c-.1-.02-.16-.08-.18-.15-.01,0-.02,0-.03,0l-.15-.19v-.09q.03-.15.01-.31v-.09s.1-.19.1-.19l.09-.02c.19,0,.26.18.29.29l.14-.03c.1.06.15.14.16.23.02.15-.09.26-.18.34Zm1.92-3.45s-.02.03-.02.05l-.26.1s-.07-.05-.12-.05l-.18-.17v-.23l.17-.17h.3l.17.14c.03.16-.02.26-.05.33Zm2.09,6.68l-.17.13h-.22l-.17-.17v-.23l.3-.11c.28.07.29.25.26.38Zm3.06-1.68l-.23.04c-.05-.03-.08-.05-.12-.05l-.18-.15c-.02-.16,0-.29.08-.38.06-.07.18-.15.41-.11l.15.15c.03.2,0,.36-.11.5Zm3.5,4.35c-.08.1-.21.16-.39.17l-.16-.1c-.08-.18-.08-.34,0-.46.06-.09.18-.2.49-.15l.14.14c.03.17.01.31-.07.41Zm.76-4.21s-.07.01-.1.01c-.11,0-.18-.04-.23-.07-.02-.01-.04-.02-.05-.02l-.13-.12c-.06-.23.09-.33.14-.37l.26-.12c.12.07.25.22.24.53l-.14.16Zm9.85,5.78l-.17.17h-.22l-.17-.17v-.23l.14-.17h.06c.1,0,.17.04.2.07l.16.18v.15Zm4.15-2.56v.07s-.17.17-.17.17h-.23l-.12-.05c-.16-.15-.09-.3-.07-.37.02-.05.04-.09.02-.16l.14-.21c.17-.03.27.04.32.09.12.12.11.3.11.46Zm2.16,5.75s-.08,0-.12-.02l-.12-.19s.02.03.05.04l-.12-.14c-.02-.1.02-.16.05-.2.07-.08.18-.09.33-.07.03,0,.05,0,.08,0,0,0-.04.01-.06.04-.02.03-.03.06-.02.07l.25-.18c.12.06.18.18.15.31-.04.18-.25.32-.46.32Zm1.71-2.59c-.02.08-.04.16-.02.28l-.13.19c-.06.01-.11.02-.16.02-.25,0-.37-.14-.46-.24-.04-.04-.07-.08-.11-.1l-.08-.18c.03-.15.14-.2.22-.19,0-.04,0-.07,0-.1l.22-.14h.07s.13-.11.29-.08l.12.09c.1.2.07.33.04.46Zm9.96-.64c-.05.13-.19.22-.35.22h0s-.08,0-.13-.02l-.13-.15c-.02-.17,0-.3.09-.38.05-.06.16-.13.33-.1l.1.05c.11.11.15.26.09.39Zm3.27,4.82l-.17.14h-.3l-.17-.14c-.02-.12,0-.22.06-.3.12-.15.38-.15.51,0,.07.08.09.19.06.3Z"/>
      <path class="cls-1" d="m74.3.03h-1.91c0,.14-.09.24-.22.24V.09s-.07,0-.13-.06t0,0h-2.28l.18.09s.07.17,0,.28c-.06.08-.16.11-.31.1h-.05s.08-.06.07-.11l-.25.17c-.16-.09-.17-.2-.16-.26.03-.17.22-.23.44-.27h-4.74s-.06.02-.09.02c-.04,0-.07-.01-.1-.02h-18.5c-.84,0-1.15,1.11-.43,1.54,4.16,2.45,11.1,5.32,21,5.58l-.06-.06c.03-.22.21-.34.49-.3l.13.25c-.03.05-.06.09-.1.12,2.22.04,4.59-.05,7.11-.3.42-.04.75-.4.75-.83v-2.45c-.14-.04-.25-.19-.26-.34,0-.15.09-.27.24-.29,0,0,.02,0,.03,0V.86c0-.46-.37-.83-.83-.83Zm-25.78,2.44l-.17.07c-.16-.03-.25-.07-.32-.1-.06-.03-.1-.04-.18-.05l-.16-.15c-.02-.16,0-.29.08-.38.06-.07.18-.15.42-.11l.1.15s-.09,0-.12.04c0,.02,0,.04,0,.05h.32s.01,0,.02.02c.05.08.16.26.02.46Zm9.26-1.82v-.18s-.07,0-.13-.06c.03-.11.06-.15.09-.15V.09c.08,0,.16.05.21.13.03.06.05.12.05.18,0,.14-.09.24-.22.24Zm3.95,5.38l-.04.07c-.08.08-.16.12-.25.12-.11,0-.19-.06-.25-.11-.03-.02-.05-.04-.07-.05l-.1-.16c0-.18.16-.32.36-.32.12,0,.23.05.3.14.06.08.08.19.05.3Z"/>
      <path class="cls-1" d="m11.72,5.03c-2.25,0-4.16,1.48-4.83,3.51,0,.01,0,.02,0,.03h-.02c-.16.5-.24,1.02-.24,1.56,0,2.8,2.29,5.09,5.09,5.09s5.1-2.29,5.1-5.09-2.29-5.1-5.1-5.1Zm-3.09,3.08l-.04.31c-.08,0-.15-.03-.2-.09-.07-.07-.12-.19-.12-.31,0-.2.13-.34.31-.34v.2s.05-.02.1,0c.04.14-.01.18-.05.24Zm.91,2.15c-.19-.19-.12-.43-.08-.59,0-.03.02-.07.03-.1l.22-.13c.07.02.12.06.18.09.04.02.08.05.12.06l.11.15c.01.17-.02.3-.11.4-.08.09-.2.15-.35.16l-.13-.05Zm.65,1.7h-.3l-.16-.12c-.05-.19.02-.3.06-.35l.32-.18s.04.05.06.07c.08.08.19.2.2.4l-.17.18Zm1.26-1.06c-.06.06-.14.09-.22.09v-.2s-.04.02-.06.01c-.13-.12-.07-.39.07-.45.02,0,.02.01.03.01v-.19c.18,0,.31.15.31.36,0,.14-.05.27-.13.36Zm.38-5.03v-.19s-.03.02-.06,0c0-.05,0-.08,0-.12,0,0-.01,0-.01,0,0,0,0-.02,0-.06,0-.04,0-.07-.01-.08,0,0,.02,0,.03.01.01-.05.03-.1.06-.14h0s0-.17,0-.17c.04,0,.16.01.22.17.02.06.04.13.04.2,0,.25-.14.36-.28.36Zm.9,6.31l-.14-.23c.08-.22.25-.26.38-.26l.18.14c.03.14-.04.22-.07.26l-.22.16c-.07-.02-.11-.05-.13-.07Zm.74,1.16l-.14.05c-.1,0-.16-.04-.21-.06-.03-.02-.03-.02-.04-.02l-.2-.17c.02-.59.61-.58.74-.27.03.07.07.26-.15.48Zm2.18-2.86h.05s.16.17.16.17v.23l-.17.17h-.22l-.17-.16c0-.13.02-.23.09-.31.05-.05.13-.11.27-.11Z"/>
      <polygon class="cls-1" points="8.44 8.02 8.27 8.02 8.44 8.02 8.44 8.02"/>
    </g>
  </g>
</svg>