<?xml version="1.0" encoding="UTF-8"?>
<svg id="Layer_2" data-name="Layer 2" xmlns="http://www.w3.org/2000/svg" viewBox="0 0 75.14 75.14">
  <defs>
    <style>
      .cls-1 {
        fill: #1b425d;
      }
    </style>
  </defs>
  <g id="Layer_1-2" data-name="Layer 1">
    <g>
      <polygon class="cls-1" points="33.67 44.79 31.83 53.78 45.84 53.78 44 44.79 33.67 44.79"/>
      <path class="cls-1" d="m72.31,0H2.83C1.27,0,0,1.27,0,2.83v69.47c0,1.57,1.27,2.83,2.83,2.83h69.47c1.57,0,2.83-1.27,2.83-2.83V2.83c0-1.57-1.27-2.83-2.83-2.83Zm-18.97,63.01c-.49.6-1.21.95-1.96.95h-1.36c-1.23,0-2.27-.89-2.53-2.17l-.85-4.15h-15.59l-.85,4.15c-.26,1.28-1.3,2.17-2.53,2.17h-1.36c-.75,0-1.47-.34-1.96-.94-.54-.66-.75-1.56-.58-2.42l3.25-15.85c-1.83-.3-3.22-1.88-3.22-3.79,0-.75.21-1.46.61-2.08-.78-2.37-.53-5.66-.32-7.41-.12-.23-.21-.48-.26-.74v-.07s-2.61-16.1-2.61-16.1c-.13-.7.02-1.45.43-2.07.42-.63,1.06-1.06,1.8-1.21,1.2-.24,2.44,0,3.46.68,1.03.68,1.72,1.72,1.97,2.93l2.15,13.87c.16.84-.02,1.74-.52,2.49-.5.76-1.28,1.27-2.17,1.45l-.52.1c-.13,1.53-.13,3.17.09,4.29h20.9c2.12,0,3.84,1.72,3.84,3.84,0,1.46-.83,2.75-2.07,3.4l3.33,16.24c.17.86-.04,1.76-.58,2.42Z"/>
    </g>
  </g>
</svg>