<?xml version="1.0" encoding="UTF-8"?>
<svg id="Layer_2" data-name="Layer 2" xmlns="http://www.w3.org/2000/svg" viewBox="0 0 75.14 75.14">
  <defs>
    <style>
      .cls-1 {
        fill: #1b425d;
      }
    </style>
  </defs>
  <g id="Layer_1-2" data-name="Layer 1">
    <g>
      <path class="cls-1" d="m18.92,58.81h7.54l9.04-17.18c.41-.77,1.2-1.25,2.07-1.25s1.67.48,2.07,1.25l9.04,17.18h7.46l-18.61-33.44-18.61,33.44Z"/>
      <polygon class="cls-1" points="31.75 58.81 43.39 58.81 37.57 47.76 31.75 58.81"/>
      <path class="cls-1" d="m72.31,0H2.83C1.27,0,0,1.27,0,2.83v69.47c0,1.57,1.27,2.83,2.83,2.83h69.47c1.57,0,2.83-1.27,2.83-2.83V2.83c0-1.57-1.27-2.83-2.83-2.83Zm-9.04,63.5H11.87c-1.29,0-2.34-1.05-2.34-2.34s1.05-2.34,2.34-2.34h1.68l21.3-38.26-3.02-5.43c-.3-.55-.38-1.18-.21-1.78.17-.6.57-1.1,1.12-1.41,1.13-.63,2.56-.22,3.18.91l1.61,2.89,1.61-2.89c.3-.55.8-.94,1.4-1.11.6-.17,1.23-.1,1.78.21.55.3.94.8,1.11,1.41.17.6.1,1.23-.21,1.78l-3.02,5.43,21.3,38.26h1.76c1.29,0,2.34,1.05,2.34,2.34s-1.05,2.34-2.34,2.34Z"/>
    </g>
  </g>
</svg>