<?xml version="1.0" encoding="UTF-8"?>
<svg id="Layer_2" data-name="Layer 2" xmlns="http://www.w3.org/2000/svg" viewBox="0 0 75.14 75.14">
  <defs>
    <style>
      .cls-1 {
        fill: #1b425d;
      }
    </style>
  </defs>
  <g id="Layer_1-2" data-name="Layer 1">
    <path class="cls-1" d="m72.31,0H2.83C1.27,0,0,1.27,0,2.83v69.47c0,1.57,1.27,2.83,2.83,2.83h69.47c1.57,0,2.83-1.27,2.83-2.83V2.83c0-1.57-1.27-2.83-2.83-2.83Zm-32.46,61.29c0,1.26-1.02,2.28-2.28,2.28s-2.28-1.02-2.28-2.28v-23.01c0-1.26,1.02-2.28,2.28-2.28s2.28,1.02,2.28,2.28v23.01Zm13.06-45.02h-6.68c-.21,3.68-2.88,6.71-6.38,7.48v6.18c3.68,1,6.39,4.37,6.39,8.36v10.23c0,1.26-1.02,2.28-2.28,2.28s-2.28-1.02-2.28-2.28v-10.23c0-2.27-1.84-4.11-4.11-4.11s-4.11,1.85-4.11,4.11v10.23c0,1.26-1.02,2.28-2.28,2.28s-2.28-1.02-2.28-2.28v-10.23c0-3.99,2.71-7.35,6.39-8.36v-6.18c-3.5-.77-6.17-3.8-6.38-7.48h-6.68c-1.26,0-2.28-1.02-2.28-2.28s1.02-2.28,2.28-2.28h7.14c2.25,0,4.09,1.83,4.09,4.09,0,1.97,1.61,3.58,3.58,3.58h1.07c1.97,0,3.58-1.61,3.58-3.58,0-2.26,1.83-4.09,4.09-4.09h7.14c1.26,0,2.28,1.02,2.28,2.28s-1.02,2.28-2.28,2.28Z"/>
  </g>
</svg>