<?xml version="1.0" encoding="UTF-8"?>
<svg id="Layer_2" data-name="Layer 2" xmlns="http://www.w3.org/2000/svg" viewBox="0 0 1408.52 1452.62">
  <defs>
    <style>
      .cls-1 {
        fill: #f1f5fb;
      }

      .cls-2 {
        fill: #c6d1e5;
      }

      .cls-3 {
        fill: #242c57;
      }

      .cls-4 {
        fill: #1a435d;
      }

      .cls-5 {
        fill: #94c3d3;
      }

      .cls-6 {
        fill: #2b2e3d;
      }

      .cls-7 {
        fill: #27b570;
      }
    </style>
  </defs>
  <g id="Layer_1-2" data-name="Layer 1">
    <g>
      <path class="cls-5" d="m1203.89,879.6s70-102.64-88.95-169.97c-125.71-53.26-55.35,135.41-55.35,135.41l144.29,34.56Z"/>
      <path class="cls-5" d="m93.3,1056.14c11.67-12.44,21.3-26.3,30.14-40.85,9.05-14.89,17.79-29.98,26.5-45.08,17.58-30.48,34.69-61.23,51.31-92.24,7.95-14.83,15.77-29.72,23.5-44.67-.24-.46-.32-1.02-.06-1.61,4.98-11.42,10.11-22.78,15.32-34.1-.47-.51,8.97-32.68,9.31-33.47,62.65-147.07,186-201.12,337.42-236.44,4.61-1.08,9.24-2.11,13.87-3.1,51.9-11.11,104.74-17,157.43-22.91,20.02-2.24,40.05-4.48,60.04-7,31.1,4.06,62.08,9.24,93.31,11.95,21.54,1.87,43.22,2.76,64.79,4.58.13.16.26.31.39.47l265.28,43.17s82.66,17.56,71.11,79.15c-10.9,58.12-83.11,66.87-158.35,54.95l-137.26-6.14c-1.27,11.99-3.1,23.92-5.4,35.71-5.55,28.45-13.5,56.41-22.16,84.05-7.52,24.02-15.81,47.82-25.34,71.12-18.76,45.89-42.37,90.22-74.23,128.43-16.02,19.22-34.09,36.65-54.08,51.71-4.67,3.52-9.45,6.89-14.28,10.17-18.05,18.27-37.2,35.44-57.33,51.38-26.52,21-54.68,39.92-84.16,56.5-29.37,16.51-60.05,30.71-91.65,42.38-33.51,12.38-78.19,21.29-107.84,27.74-.15.17-157.65,155.32-207.32,203.57-8.59,8.35-21.86,9.36-31.71,2.54-95.73-66.23-200.4-187.53-240.19-291.38-3.84-10.01-.89-21.33,7.37-28.18,24.89-20.63,75.4-62.97,84.27-72.43Z"/>
      <g>
        <path class="cls-3" d="m884.79,1073.73l465.14-772.03c14.25-23.66,13.38-55.44-1.94-70.98L1128.82,8.43c-15.33-15.55-39.31-8.97-53.56,14.69l-465.14,772.03c-14.25,23.66-13.38,55.44,1.94,70.98l219.17,222.3c15.33,15.55,39.31,8.97,53.56-14.69Z"/>
        <path class="cls-3" d="m658.56,807.31L1123.71,35.29c3.1-5.15,6.68-9.43,10.51-12.91-7.17-6.21-18.78-21.68-18.78-21.68l48.33,12.15s-.04.03-.05.03c4.89,1.12,9.52,3.64,13.55,7.72l219.17,222.3c15.33,15.55,16.2,47.33,1.94,70.98l-465.14,772.03c-14.25,23.66-38.23,30.23-53.56,14.69l-219.17-222.3c-15.33-15.55-16.2-47.32-1.94-70.98Z"/>
        <path class="cls-1" d="m1080.73,42.56l-442.13,733.83c-11.19,18.57-11.27,42.79-.13,54.09l213.05,216.1c11.13,11.29,29.23,5.35,40.42-13.22l442.13-733.83c11.19-18.57,11.27-42.79.13-54.09l-213.05-216.1c-11.13-11.29-29.23-5.35-40.42,13.23Z"/>
        <ellipse class="cls-7" cx="1029.38" cy="466.51" rx="142.28" ry="94.79" transform="translate(264.23 1298.25) rotate(-71.77)"/>
        <g>
          <path class="cls-1" d="m979.46,435.35c-6.73,25.48-13.45,50.95-20.17,76.43-1.17,4.45,1.49,9.75,6.15,10.82,4.61,1.06,9.56-1.4,10.82-6.15,6.72-25.48,13.45-50.95,20.17-76.43,1.17-4.45-1.49-9.75-6.15-10.82-4.61-1.06-9.56,1.4-10.82,6.15h0Z"/>
          <path class="cls-1" d="m1084.73,438.68c-15.28,8.54-30.56,17.08-45.84,25.62-17.12,9.57-34.24,19.13-51.36,28.7-8.07,4.51-16.13,9.01-24.2,13.52-4.02,2.25-5.69,8.1-3.15,12.04,2.63,4.07,7.73,5.56,12.04,3.15,15.28-8.54,30.56-17.08,45.84-25.61,17.12-9.57,34.24-19.13,51.36-28.7,8.07-4.51,16.13-9.01,24.2-13.52,4.02-2.25,5.69-8.1,3.15-12.04-2.63-4.07-7.73-5.56-12.04-3.15h0Z"/>
        </g>
        <path class="cls-2" d="m645.46,765l-6.86,11.39c-11.19,18.57-11.27,42.79-.13,54.09l213.05,216.1c11.13,11.29,29.23,5.35,40.42-13.22l6.86-11.39-253.34-256.96Z"/>
        <path class="cls-2" d="m1080.73,42.56l-13.87,23.02,253.34,256.96,13.87-23.02c11.19-18.57,11.27-42.79.13-54.09l-213.05-216.1c-11.13-11.29-29.23-5.35-40.42,13.23Z"/>
        <g>
          <path class="cls-1" d="m1105.35,60.74c-3.34,5.54-3.35,12.75-.04,16.12,3.31,3.36,8.71,1.6,12.04-3.94,3.34-5.54,3.35-12.75.04-16.12-3.31-3.36-8.71-1.6-12.04,3.94Z"/>
          <path class="cls-1" d="m1122.41,78.05c-3.34,5.54-3.35,12.75-.04,16.12,3.31,3.36,8.71,1.6,12.04-3.94,3.34-5.54,3.35-12.75.04-16.12-3.31-3.36-8.71-1.6-12.04,3.94Z"/>
          <path class="cls-1" d="m1139.48,95.37c-3.34,5.54-3.35,12.75-.04,16.12,3.31,3.36,8.71,1.6,12.04-3.94,3.34-5.54,3.35-12.75.04-16.12-3.31-3.36-8.71-1.6-12.04,3.94Z"/>
        </g>
        <path class="cls-1" d="m1277.11,251.12l24.87,25.23c3.59,3.64,9.2,2.1,12.54-3.44h0c3.34-5.54,3.13-12.98-.46-16.62l-24.87-25.23c-3.59-3.64-9.2-2.1-12.54,3.44h0c-3.34,5.54-3.13,12.98.46,16.62Z"/>
        <path class="cls-3" d="m1216.9,155.27c-3.82-3.88-10.04-1.84-13.88,4.54-3.85,6.38-3.87,14.7-.05,18.57,3.82,3.88,10.04,1.84,13.88-4.54,3.85-6.38,3.87-14.7.05-18.57Z"/>
        <path class="cls-6" d="m814.77,662.68c23.51,23.85,47.03,47.7,70.54,71.55,13.98,14.18,27.96,28.36,41.94,42.54,2.82,2.86,5.78,5.64,8.48,8.6,3.12,3.42,5.5,6.66,10.36,7.63,8.75,1.75,17.06-4.72,22.52-10.82,6.89-7.7,11.79-17.8,17.05-26.63,8.37-14.04,13.56-31.56,8.69-47.78-3.63-12.1-15.65-21.2-24.22-29.9-30.14-30.57-60.28-61.14-90.42-91.71-4.1-4.16-8.1-8.47-12.32-12.5-10.73-10.24-23.9-6.12-33.6,3.67-8.15,8.22-13.91,20.03-19.7,29.97-8.46,14.53-16.72,42.23-.23,54.68,4.52,3.41.08,11.16-4.5,7.7-13.14-9.93-15.2-26.91-12.43-42.25,2.56-14.18,10.21-25.87,17.49-37.96,6.93-11.49,14.43-22.95,27.33-28.4,11.23-4.74,22.46-2.69,31.27,5.62,29.96,28.25,58.01,58.84,86.92,88.16,11.13,11.29,22.61,22.34,33.45,33.93,19.77,21.14,11.21,52.6-2.07,74.64-6.58,10.92-12.54,22.97-22.75,30.99-11.71,9.21-26.91,10.97-37.55-.69-8.92-9.78-18.42-19.11-27.73-28.55-31.61-32.06-63.23-64.13-94.84-96.19-4.03-4.09,2.27-10.39,6.3-6.3Z"/>
      </g>
      <path class="cls-5" d="m161.52,955.59c12.43-28.63,25.88-56.84,38.9-85.2,13.12-28.59,26.22-57.19,39.35-85.77,19.76-43.01,41.17-88.06,77.14-120.1,19.13-17.04,41.64-28.39,66.33-35.01,28.56-7.66,58.37-10.94,87.54-15.43,31.28-4.82,62.57-9.55,93.9-14,44.66-6.34,89.81-.72,133.28,10.29,41.3,10.46,80.13,28.41,122.52,33.36,23,2.69,56.45,1.24,73.9,19.3,23.23,24.04-1.13,60.73-24.28,73.82-53.39,30.19-117.58,6.82-174.27,18.82-41.61,8.81-80.01,30.83-115.12,54.44-5.33,3.59-10.62,7.24-15.89,10.92,2.06,20.16,2.2,40.51.34,60.69-3.71,40.26-15.14,79.72-34.04,115.49-17.1,32.35-40.08,61.6-67.28,86.07-27.7,24.91-59.95,45.19-94.86,58.3-37.62,14.13-80.01,20.04-119.17,8.71-4.61-1.33-9.14-2.94-13.59-4.74-29.53-.67-58.92-14.75-77.05-38.22-34.42-44.56-17.9-105.07,2.36-151.73Z"/>
      <path class="cls-5" d="m1091.81,937.09c23.71-5.93,47.1-13.98,69.52-25.43,19.66-10.05,50-24.82,50.91-59.04,2.94-111.4-108.39-52.62-146.95-34.54-22.07,10.35-45.23,20.93-58.88,48-5.38,10.67-9.11,23.2-8.25,35.2,4.06,56.72,65.8,42.79,93.66,35.82Z"/>
      <path class="cls-5" d="m813.81,988.15c6.91,25.08,68.1,46.23,98.21,55.62,32.39,10.1,65.74,17.02,99.39,21.25,38.85,4.88,96.91.99,103.07-48.87,6.17-49.91-50.16-68.97-88.75-75.94-31.3-5.66-62.22-13.52-93.86-17.17-37.53-4.34-98.35-7.67-116.46,31.43-5.41,11.67-4.12,24.53-1.6,33.69Z"/>
      <path class="cls-5" d="m697.87,1086.86c22.85,15.64,52.48,19.54,78.96,25.22,29.5,6.33,59.59,9.77,89.73,10.8,34.8,1.19,85.91-6.94,87.34-51.59.76-23.61-17.01-41.85-37.47-50.69-25.14-10.87-56.34-10.54-83.29-13.01-30.63-2.81-61.74-4.34-92.29.2-10.81,1.6-21.77,3.76-31.8,8.24-11.53,5.15-20.23,14.4-24.66,24.91-6.61,15.69-3.71,34.16,13.48,45.93Z"/>
      <path class="cls-4" d="m569.75,826.22c-3.14,61.92-11.08,123.2-46.34,176.04-34.07,51.06-86.91,86.79-144.91,105.37-36.99,11.85-75.9,16.84-114.66,16.92-5.73.01-5.74-8.9,0-8.91,64.55-.14,129.97-14.71,184.17-50.95,49.49-33.09,84.22-81.82,100.12-139.13,8.98-32.37,11.01-65.94,12.7-99.33.29-5.71,9.2-5.74,8.91,0h0Z"/>
      <path class="cls-4" d="m614.62,794.84c-24.35,16.21-46.62,35.28-69.82,53.06-4.55,3.49-8.99-4.25-4.5-7.7,23.2-17.77,45.47-36.84,69.82-53.06,4.79-3.19,9.25,4.53,4.5,7.7h0Z"/>
      <path class="cls-4" d="m715.63,617.69c-110.22-32.3-223.37,1.03-331.66,24.83-5.59,1.23-7.98-7.36-2.37-8.59,109.88-24.15,224.58-57.6,336.4-24.83,5.49,1.61,3.15,10.21-2.37,8.59h0Z"/>
      <path class="cls-4" d="m949.49,1059.07c-43-10.9-87.21-20.98-123.67-47.63-4.58-3.35-.14-11.09,4.5-7.7,35.87,26.23,79.24,36.01,121.54,46.74,5.56,1.41,3.2,10.01-2.37,8.59h0Z"/>
      <path class="cls-6" d="m474.07,1248.28c-24.38,5.77-49.83.78-69.94-14.26-4.54-3.39-.1-11.13,4.5-7.7,18.23,13.63,40.86,18.62,63.07,13.36,5.58-1.32,7.96,7.27,2.37,8.59h0Z"/>
      <path class="cls-4" d="m766.53,1115.71c-30.92-4.73-85.89-16.7-90.13-55.44-1.79-16.35,6.95-32.78,19.48-42.86,15.5-12.48,35.77-15.37,54.97-17.12,5.71-.52,5.67,8.39,0,8.91-16.49,1.51-34.34,3.79-48,14-12.18,9.1-20.96,25.54-16.71,40.88,4.26,15.34,19.62,24,33.36,29.66,15.83,6.52,32.5,10.79,49.4,13.38,5.65.86,3.25,9.45-2.37,8.59h0Z"/>
      <path class="cls-4" d="m1044.21,932.04c-18.96-2.55-31.95-18.08-31.43-37.27.58-21.35,15.91-38.94,34.71-47.29,17.61-7.82,41.09-10.1,55.67,4.86,14.27,14.64,12.15,37.76,2.04,54.1-12.67,20.49-36.84,27.77-59.81,25.76-5.67-.5-5.72-9.41,0-8.91,20.31,1.77,41.86-3.84,52.81-22.47,10.28-17.5,8.32-43.99-14.49-49.65-20.65-5.12-45.77,6.97-56.34,24.89-11.4,19.33-4.6,44.19,19.2,47.39,5.66.76,3.25,9.35-2.37,8.59Z"/>
      <path class="cls-4" d="m856.16,1007.65c-20.55-10.88-35.89-37.47-16.32-57.09,18.54-18.58,51.63-14.32,73.13-4.01,21.99,10.54,37.62,37.55,18.82,58.63-19.46,21.83-52.86,13.49-75.63,2.47-5.16-2.5-.65-10.18,4.5-7.7,17.85,8.63,44.08,16.62,61.31,2.36,19.51-16.14,4.85-39.32-13.5-48.07-16.5-7.87-40.66-11.67-57.02-1.5-8.6,5.35-13.53,14.46-11.18,24.67,2.41,10.48,11.32,17.74,20.39,22.54,5.07,2.69.57,10.38-4.5,7.7Z"/>
      <path class="cls-4" d="m725.39,1086.59c-20.57-9.13-27.96-33.2-13.82-51.5,14.52-18.8,43.14-22.47,64.32-14.16,20.93,8.22,29.97,31.47,17.56,50.98-14.72,23.13-43.6,24.16-66.99,15.13-5.29-2.04-2.99-10.66,2.37-8.59,17.23,6.65,38.82,8.9,52.76-5.76,14.65-15.41,9.32-37.26-10.68-44.12-15.76-5.4-36.69-3.74-49.07,8.35-14.36,14.03-9.72,34.09,8.06,41.98,5.23,2.32.7,10-4.5,7.7Z"/>
      <path class="cls-6" d="m899.22,676.46c-15.3,6.97-34.86,4.03-50.51-.55-17.27-5.05-32.87-14.25-45.95-26.54-4.19-3.94,2.12-10.23,6.3-6.3,11.28,10.59,24.54,18.67,39.3,23.41,13.69,4.4,32.76,8.48,46.37,2.28,5.18-2.36,9.72,5.32,4.5,7.7h0Z"/>
    </g>
  </g>
</svg>