<?xml version="1.0" encoding="UTF-8"?>
<svg id="Layer_2" data-name="Layer 2" xmlns="http://www.w3.org/2000/svg" viewBox="0 0 1417.18 1518.42">
  <defs>
    <style>
      .cls-1 {
        fill: #fecb76;
      }

      .cls-2 {
        fill: #1b425d;
      }

      .cls-3 {
        fill: #94c3d3;
      }
    </style>
  </defs>
  <g id="Layer_1-2" data-name="Layer 1">
    <g>
      <path class="cls-3" d="m0,1143.46l280.64-178.28s26.36-125.46,96.76-219.21c88.59-117.99,187.27-202.21,239.21-232.03,35.83-20.57,82.99-15.98,102.67,17.83,19.67,33.81,8.61,84.84-12.3,118.03-20.9,33.2-70.08,95.29-94.67,197.34,0,0,186.58-21.21,308.3,74.69,0,0,261.28-195.84,313.84-232.72,52.56-36.89,92.29-36.12,122.65-22.13,40.27,18.55,49.8,71.93,24.9,108.81-24.9,36.89-327.06,409.47-361.48,450.04-34.43,40.57-59.35,60.42-163.46,95.9-119.95,40.88-313.6,56.56-313.6,56.56l-261,140.12S137.71,1396.75,0,1143.46Z"/>
      <path class="cls-2" d="m626.8,556.31c-21.22,36.9-67.8,74.28-110.38,46.19-5.92-3.91-.38-13.49,5.59-9.55,37.6,24.81,77.12-10.72,95.24-42.22,3.55-6.17,13.12-.61,9.55,5.59h0Z"/>
      <path class="cls-3" d="m985.2,1263.08s368.3-270.38,404.26-300.82c35.96-30.43,33.98-77.35,8.46-106.46-21.82-24.9-66.03-28.94-95.54-9.57-29.51,19.37-317.18,416.85-317.18,416.85Z"/>
      <path class="cls-1" d="m588.62,489.68c0,72.15,58.48,130.63,130.63,130.63,72.15,0,130.69-58.48,130.69-130.63,0-72.15-58.54-130.69-130.69-130.69-72.15,0-130.63,58.54-130.63,130.69Zm41.22,0c0-49.41,40.06-89.47,89.41-89.47,49.41,0,89.47,40.06,89.47,89.47,0,49.35-40.06,89.41-89.47,89.41-49.35,0-89.41-40.06-89.41-89.41Z"/>
      <path class="cls-1" d="m707.7,0h23.15C735.49,0,739.26,3.77,739.26,8.41v360c0,8.99-7.3,16.28-16.28,16.28h-23.68V8.41C699.3,3.77,703.06,0,707.7,0Z" transform="translate(1438.55 384.69) rotate(-180)"/>
      <rect class="cls-1" x="677.01" y="26.74" width="39.96" height="66.39" rx="11.95" ry="11.95" transform="translate(637.05 756.93) rotate(-90)"/>
      <rect class="cls-1" x="719.43" y="-13.22" width="39.96" height="66.39" rx="11.95" ry="11.95" transform="translate(719.43 759.39) rotate(-90)"/>
      <rect class="cls-1" x="748.95" y="37.18" width="39.96" height="125.43" rx="11.95" ry="11.95" transform="translate(669.03 868.83) rotate(-90)"/>
      <path class="cls-3" d="m1037.72,1105.35s128.69-197.34,65.98-381.77c-62.71-184.43-233.81-229.92-314.04-233.92-80.23-4-96.83,40.88-90.37,85.76,6.45,44.88,48.87,66.09,83.92,80.84,35.04,14.75,112.5,39.65,128.18,137.4,15.68,97.75-26.74,150.31-71.93,191.81l198.26,119.88Z"/>
      <path class="cls-2" d="m900,911.31c-20.05,29.79-44.32,57.45-79.64,68.4-6.82,2.11-9.73-8.56-2.94-10.67,32.43-10.05,54.67-36.04,73.03-63.32,3.96-5.88,13.55-.35,9.55,5.59h0Z"/>
      <path class="cls-2" d="m618.67,923.59c-9.87-23.75-12.06-48.73-7.1-73.91,1.37-6.98,12.04-4.03,10.67,2.94-4.59,23.31-1.99,46.15,7.1,68.03,2.73,6.57-7.97,9.43-10.67,2.94h0Z"/>
      <path class="cls-2" d="m1340.57,844.3c-110.2,139.42-225.73,274.42-342.43,408.41-4.69,5.38-12.48-2.47-7.82-7.83,116.69-134,232.22-269,342.43-408.41,4.41-5.58,12.2,2.29,7.82,7.82h0Z"/>
      <path class="cls-2" d="m1048.32,1109.41c66.75-99.15,82.1-215.52,65.83-332.14-.97-6.96,9.69-9.98,10.67-2.94,16.68,119.59,1.53,238.94-66.95,340.67-3.96,5.88-13.55.34-9.55-5.59h0Z"/>
      <path class="cls-2" d="m1386.12,698.7c-31.01,28.65-99.7,106.7-63.45,149.32,4.59,5.4-3.2,13.26-7.82,7.82-43.21-50.8,26.17-130.53,63.45-164.97,5.22-4.83,13.07,2.98,7.82,7.82h0Z"/>
      <path class="cls-2" d="m1414.33,895.83c-36.74,17.21-122.58,68.64-101.6,118.14,2.75,6.48-6.78,12.13-9.55,5.59-11.26-26.56-.32-50.39,18.83-70.19,24.35-25.18,54.96-48.2,86.74-63.08,6.41-3,12.04,6.53,5.58,9.56h0Z"/>
      <path class="cls-2" d="m707.13,521.82c-7.65,14.46-9.77,30.33-6.16,46.29,1.57,6.93-9.1,9.9-10.67,2.94-4.28-18.92-1.8-37.67,7.27-54.81,3.33-6.3,12.89-.71,9.55,5.59h0Z"/>
      <path class="cls-2" d="m858.52,508.96c-31.02,44.39-100.91,28.91-144.56,15.47-6.79-2.09-3.89-12.77,2.94-10.67,37.52,11.55,104.86,28.54,132.06-10.38,4.05-5.8,13.65-.27,9.55,5.59h0Z"/>
    </g>
  </g>
</svg>