<?xml version="1.0" encoding="UTF-8"?>
<svg id="Layer_2" data-name="Layer 2" xmlns="http://www.w3.org/2000/svg" viewBox="0 0 808.25 1469.09">
  <defs>
    <style>
      .cls-1 {
        fill: #f1f5fb;
      }

      .cls-2 {
        fill: #c6d1e5;
      }

      .cls-3 {
        fill: #242c57;
      }

      .cls-4 {
        fill: #7199d0;
      }

      .cls-5 {
        fill: #94c3d3;
      }

      .cls-6 {
        fill: #2b2e3d;
      }
    </style>
  </defs>
  <g id="Layer_1-2" data-name="Layer 1">
    <g>
      <path class="cls-5" d="m775.94,637.93c-6.68-3.01-14.09-3.9-21.35-3.97-7.52-.08-15.05.58-22.48,1.78-14.74,2.38-28.98,7.16-42.54,13.35-14.5,6.63-28.16,14.82-41.31,23.82.74-31.3.12-62.63-1.52-93.9-1.76-33.56-4.64-67.05-8.11-100.47-2.46-23.72-5.24-47.4-8.13-71.07,11.56-13.79,23.41-27.32,35.26-40.86,15.22-17.39,30.42-34.8,44.89-52.81,24.24-30.17,48.09-63.23,63.59-98.93,10.88-25.06,14.93-69.15-20.12-76.54-40.79-8.6-91.41,45.41-120.77,68.09-10.59,8.18-20.97,16.61-31.18,25.25-18.03,13.58-35.69,27.65-52.93,42.21-40.07,33.84-77.99,70.2-113.84,108.46-36.01,38.43-69.92,78.79-101.98,120.56-32.31,42.11-62.71,85.66-91.44,130.28-9.67,15.02-19.09,30.2-28.4,45.46-10.14-8.91-20.5-17.57-31.1-25.92-1.31-29.19-12.24-60.24-16.08-89.21,6.47-11.4,13.06-23.07,16.16-35.8,12.64-51.92,16.96-129.17,2.84-163.91-5.17-12.72-11.81-26.56-23.98-33.97-11.14-6.77-24.5-5.43-35.04,1.76-11.6,7.92-19.77,20.4-26.2,32.64-8.99,17.12-16.8,34.94-25.12,52.4-16.58,34.77-34.12,69.28-48.05,105.23-14.21,36.68-22.19,75.49-24.52,114.76-4.88,82.09-3.81,165.32,14,245.93,17.02,77.01,52.68,143.9,93.44,210.66,7.57,12.41,15.1,25.18,24.23,36.53-5.26,22.79-42.44,175.88-55.12,227.9-2.12,8.69.83,17.87,7.71,23.58,95.12,78.81,233.24,100.4,341.65,81.43,9.21-1.61,16.52-8.61,18.68-17.7,11.28-47.5,40.1-168.78,49.84-209.8,11.89-9.38,23.28-19.39,34.01-30.09,23.95-23.91,44.25-51.1,60.89-80.55,17.2-30.45,30.88-62.97,41.62-96.23,10.86-33.63,18.54-68.27,23.02-103.32,3.31-25.91,9.98-42.38,9.71-68.51,16.55-19.12,33.09-38.24,49.64-57.35,12.06-13.93,24.12-27.87,36.18-41.8,5.94-6.86,11.88-13.72,17.82-20.58,5.21-6.02,44.42-50.39,35.83-76.14-4.1-12.31-17.49-17.1-29.73-22.62Z"/>
      <path class="cls-6" d="m382.45,923.71c24.49,48.57,33.48,103.98,25.41,157.8-.79,5.29,7.3,7.57,8.1,2.23,8.42-56.21-.67-113.5-26.26-164.27-2.43-4.83-9.68-.58-7.25,4.24h0Z"/>
      <g>
        <rect class="cls-3" x="-37.04" y="218.91" width="941.72" height="503.89" rx="14" ry="14" transform="translate(904.67 37.04) rotate(90)"/>
        <rect class="cls-1" x="-5.98" y="226.98" width="879.6" height="464.77" rx="11" ry="11" transform="translate(893.18 25.55) rotate(90)"/>
        <path class="cls-6" d="m276.39,251.55h115.9c5.4,0,5.41-8.4,0-8.4h-115.9c-5.4,0-5.41,8.4,0,8.4h0Z"/>
        <path class="cls-6" d="m276.39,315.38h115.9c5.4,0,5.41-8.4,0-8.4h-115.9c-5.4,0-5.41,8.4,0,8.4h0Z"/>
        <path class="cls-6" d="m276.39,379.21h323.05c5.4,0,5.41-8.4,0-8.4h-323.05c-5.4,0-5.41,8.4,0,8.4h0Z"/>
        <path class="cls-6" d="m276.39,443.03h323.05c5.4,0,5.41-8.4,0-8.4h-323.05c-5.4,0-5.41,8.4,0,8.4h0Z"/>
        <path class="cls-6" d="m276.39,506.86h323.05c5.4,0,5.41-8.4,0-8.4h-323.05c-5.4,0-5.41,8.4,0,8.4h0Z"/>
        <path class="cls-6" d="m276.39,570.69h323.05c5.4,0,5.41-8.4,0-8.4h-323.05c-5.4,0-5.41,8.4,0,8.4h0Z"/>
        <path class="cls-6" d="m489.52,629.73h109.92c5.4,0,5.41-8.4,0-8.4h-109.92c-5.4,0-5.41,8.4,0,8.4h0Z"/>
        <path class="cls-6" d="m489.52,690.2h109.92c5.4,0,5.41-8.4,0-8.4h-109.92c-5.4,0-5.41,8.4,0,8.4h0Z"/>
        <path class="cls-6" d="m489.52,754.03h109.92c5.4,0,5.41-8.4,0-8.4h-109.92c-5.4,0-5.41,8.4,0,8.4h0Z"/>
        <rect class="cls-2" x="276.39" y="622.18" width="180.09" height="131.01" rx="4" ry="4"/>
        <rect class="cls-2" x="425.32" y="241.08" width="174.12" height="76.84" rx="4" ry="4"/>
        <rect class="cls-4" x="201.43" y="78.64" width="464.77" height="69.43"/>
        <path class="cls-1" d="m252.51,94.69c10.31,0,18.66,8.36,18.66,18.66s-8.36,18.66-18.66,18.66-18.66-8.36-18.66-18.66,8.36-18.66,18.66-18.66Z"/>
        <rect class="cls-1" x="294.97" y="94.69" width="232.34" height="37.33" rx="2.83" ry="2.83"/>
        <circle class="cls-3" cx="433.82" cy="51.88" r="12.69"/>
      </g>
      <path class="cls-5" d="m770.2,380.46c-10.57-15.4-29.8-24.25-48.19-25.56-33.7-2.4-63.66,22.28-86.45,44.31-21.72,20.99-43.66,41.99-62.4,65.75-15.65,19.84-40.25,51.38-28.22,78.33,4.85,10.88,15.88,18.22,27.56,20.58,27.33,5.54,55.1-11.71,77.3-25.36,39.71-24.42,74.86-43.09,105.31-79.15,8.06-9.55,15.03-21.16,19.36-32.89,3.89-10.53,5.36-22.29,2.06-33.03-1.44-4.7-3.6-9.04-6.31-12.99Z"/>
      <path class="cls-5" d="m798.08,638.22c-35.31-39.78-104.31,13.53-135.68,35.42-16.08,11.22-33.49,22.71-45.52,38.51-5.61,7.36-9.69,16.22-9.8,25.48-.13,11.15,5.78,22.05,14.8,28.61,41.11,29.9,120.47-18.22,152.03-44.37,17.03-14.11,34.58-33.9,34.35-58.63-.09-9.27-4.07-18.15-10.17-25.02Z"/>
      <path class="cls-5" d="m780.77,529.4c-9.09-26.46-41.37-36.99-74.1-22.79-35.31,15.32-68.83,35.24-98.56,59.72-28.35,23.35-114.24,91.35-69.03,132.47,20.68,18.81,55.86,8.23,78.7-.19,25.78-9.51,49.49-23.88,71.32-40.44,33.36-25.31,77.73-50.11,90.91-92.74,4.31-13.95,4.16-26.11.75-36.04Z"/>
      <path class="cls-6" d="m644.97,691.31c28.22-15.49,55.48-33.35,80.96-53.03,4.22-3.26.04-10.56-4.24-7.25-25.48,19.68-52.74,37.54-80.96,53.03-4.74,2.6-.51,9.86,4.24,7.25h0Z"/>
      <path class="cls-6" d="m630.37,554.63c21.76-14.5,44.25-27.8,67.44-39.88,4.79-2.5.55-9.75-4.24-7.25-23.19,12.09-45.67,25.39-67.44,39.88-4.48,2.98-.28,10.26,4.24,7.25h0Z"/>
      <path class="cls-6" d="m124.53,573.32c14.58-.23,28.97-1.81,43.27-4.7,5.29-1.07,3.05-9.17-2.23-8.1-13.57,2.74-27.2,4.18-41.03,4.4-5.4.08-5.42,8.48,0,8.4h0Z"/>
      <path class="cls-6" d="m423.59,1217.34c15.64,13.35,34.88,20.46,55.47,20.17,5.4-.08,5.41-8.48,0-8.4-18.3.26-35.59-5.8-49.54-17.71-4.09-3.49-10.06,2.42-5.94,5.94h0Z"/>
      <g>
        <path class="cls-1" d="m587.31,103.69h35.46c5.4,0,5.41-8.4,0-8.4h-35.46c-5.4,0-5.41,8.4,0,8.4h0Z"/>
        <path class="cls-1" d="m587.31,117.56h35.46c5.4,0,5.41-8.4,0-8.4h-35.46c-5.4,0-5.41,8.4,0,8.4h0Z"/>
        <path class="cls-1" d="m587.31,131.42h35.46c5.4,0,5.41-8.4,0-8.4h-35.46c-5.4,0-5.41,8.4,0,8.4h0Z"/>
      </g>
      <path class="cls-6" d="m563.75,493.82c-9.69,15.21-13.09,37.54,3.36,49.67,13.83,10.2,32.36,5.95,45.99-2.25,16.5-9.93,32.44-26.53,34.6-46.49,1.99-18.41-10.15-33.76-28.67-35.68-23.61-2.45-42.97,16.95-55.27,34.74-3.08,4.46,4.19,8.66,7.25,4.24,10.39-15.03,27.3-32.92,47.45-30.58,24.54,2.85,24.49,29.23,13.17,45.61-9.58,13.86-26.84,27.67-44.41,27.99-9.11.17-17.6-3.76-21.41-12.4-4.58-10.38-.54-21.62,5.2-30.63,2.91-4.57-4.35-8.79-7.25-4.24Z"/>
      <path class="cls-6" d="m554.94,632.59c-14.69,16.79-19.59,45.92,5.13,56.34,21.64,9.13,47.71-4.06,63.14-19.22,16.62-16.33,23.93-46.7-.72-59.72-24.39-12.88-51.08,5.17-67.55,22.6-3.71,3.93,2.22,9.88,5.94,5.94,12.61-13.35,32.13-28.89,51.9-23.41,24.93,6.91,18.98,34.43,4.5,48.66-11.62,11.41-29.79,21.69-46.64,19.38-8.36-1.14-15.72-5.57-18.71-13.76-4.06-11.11,1.68-22.56,8.95-30.87,3.55-4.05-2.37-10.01-5.94-5.94Z"/>
      <path class="cls-6" d="m634.95,707.25c-14.51,14.25-20.59,40.27.92,51.47,19.18,9.99,44-.55,59.09-13.35,15.92-13.5,23.99-39.55,3.75-53.35-21.23-14.48-47.38.48-63.76,15.23-4.02,3.62,1.93,9.55,5.94,5.94,12.04-10.84,29.93-22.79,46.96-17.27,22.35,7.24,15.07,31.95,1.17,43.52-11.22,9.34-28.38,17.54-43.3,13.97-6.92-1.65-12.97-5.88-15.13-12.92-3.16-10.31,3.25-20.36,10.31-27.29,3.86-3.79-2.08-9.73-5.94-5.94Z"/>
    </g>
  </g>
</svg>