<?xml version="1.0" encoding="UTF-8"?>
<svg id="Layer_2" data-name="Layer 2" xmlns="http://www.w3.org/2000/svg" viewBox="0 0 75.14 75.14">
  <defs>
    <style>
      .cls-1 {
        fill: #1b425d;
      }
    </style>
  </defs>
  <g id="Layer_1-2" data-name="Layer 1">
    <g>
      <polygon class="cls-1" points="39.41 32.86 50.8 23.91 39.41 14.84 39.41 32.86"/>
      <polygon class="cls-1" points="39.41 60.31 50.83 51.21 39.41 42.03 39.41 60.31"/>
      <path class="cls-1" d="m72.31,0H2.83C1.27,0,0,1.27,0,2.83v69.47c0,1.57,1.27,2.83,2.83,2.83h69.47c1.57,0,2.83-1.27,2.83-2.83V2.83c0-1.57-1.27-2.83-2.83-2.83Zm-16.58,49.51c.52.42.82,1.04.82,1.71,0,.68-.3,1.3-.83,1.72l-17.13,13.65c-.39.31-.88.48-1.37.48-.33,0-.66-.08-.96-.22-.75-.36-1.24-1.14-1.24-1.98v-22.96l-12.86,10.11c-.46.36-1.04.52-1.62.45-.58-.07-1.1-.36-1.47-.82-.75-.95-.58-2.34.37-3.09l14.21-11.17-14.23-11.44c-.94-.76-1.09-2.15-.34-3.09.76-.95,2.15-1.1,3.09-.34l12.84,10.33V10.27c0-.84.49-1.62,1.24-1.98.76-.37,1.67-.26,2.33.26l17.13,13.65c.53.42.83,1.05.83,1.72,0,.68-.31,1.31-.84,1.73l-14.99,11.79,15.01,12.07Z"/>
    </g>
  </g>
</svg>