<?xml version="1.0" encoding="UTF-8"?>
<svg id="Layer_2" data-name="Layer 2" xmlns="http://www.w3.org/2000/svg" viewBox="0 0 75.14 75.14">
  <defs>
    <style>
      .cls-1 {
        fill: #1b425d;
      }
    </style>
  </defs>
  <g id="Layer_1-2" data-name="Layer 1">
    <path class="cls-1" d="m72.31,0H2.83C1.27,0,0,1.27,0,2.83v69.47c0,1.57,1.27,2.83,2.83,2.83h69.47c1.57,0,2.83-1.27,2.83-2.83V2.83c0-1.57-1.27-2.83-2.83-2.83Zm-8.8,61.22c0,1.3-1.06,2.36-2.36,2.36s-2.36-1.06-2.36-2.36v-21.29h-18.85v21.29c0,1.3-1.06,2.36-2.36,2.36s-2.36-1.06-2.36-2.36v-21.29H13.99c-1.3,0-2.36-1.06-2.36-2.36V13.82c0-1.3,1.06-2.36,2.36-2.36s2.36,1.06,2.36,2.36v21.39h18.85V13.82c0-1.3,1.06-2.36,2.36-2.36s2.36,1.06,2.36,2.36v21.39h18.85V13.82c0-1.3,1.06-2.36,2.36-2.36s2.36,1.06,2.36,2.36v47.4Z"/>
  </g>
</svg>