<?xml version="1.0" encoding="UTF-8"?>
<svg id="Layer_2" data-name="Layer 2" xmlns="http://www.w3.org/2000/svg" viewBox="0 0 75.14 75.14">
  <defs>
    <style>
      .cls-1 {
        fill: #1b425d;
      }
    </style>
  </defs>
  <g id="Layer_1-2" data-name="Layer 1">
    <g>
      <path class="cls-1" d="m48.7,27.39c0-1.5-.29-2.96-.87-4.33-.56-1.33-1.36-2.52-2.39-3.54s-2.21-1.83-3.54-2.39c-1.37-.58-2.83-.87-4.33-.87s-2.96.29-4.33.87c-1.33.56-2.52,1.36-3.54,2.39-1.02,1.02-1.83,2.21-2.39,3.54-.58,1.37-.87,2.83-.87,4.33s.29,2.96.87,4.33c.56,1.33,1.37,2.52,2.39,3.54,1.02,1.02,2.21,1.83,3.54,2.39,2.74,1.16,5.92,1.16,8.67,0,1.33-.56,2.52-1.36,3.54-2.39s1.83-2.22,2.39-3.54c.58-1.37.87-2.83.87-4.33Z"/>
      <path class="cls-1" d="m72.31,0H2.83C1.27,0,0,1.27,0,2.83v69.47c0,1.57,1.27,2.83,2.83,2.83h69.47c1.57,0,2.83-1.27,2.83-2.83V2.83c0-1.57-1.27-2.83-2.83-2.83Zm-11.39,62.81c-.44.49-1.08.77-1.74.77-1.22,0-2.22-.91-2.33-2.12-.19-1.95-.67-3.86-1.43-5.67-.49-1.15-1.09-2.25-1.79-3.29-.69-1.02-1.49-1.99-2.37-2.87-.88-.88-1.84-1.67-2.87-2.37-1.04-.7-2.14-1.3-3.29-1.78-4.77-2.02-10.3-2.02-15.07,0-1.14.48-2.25,1.08-3.29,1.78-1.03.69-1.99,1.49-2.87,2.37-.88.88-1.67,1.84-2.37,2.87-.7,1.04-1.3,2.14-1.78,3.29-.76,1.81-1.25,3.71-1.43,5.67-.12,1.21-1.12,2.12-2.34,2.12-.66,0-1.29-.28-1.74-.77-.44-.49-.66-1.14-.6-1.8.88-9.22,6.92-17.02,15.52-20.22-4.6-2.89-7.4-7.9-7.4-13.4,0-8.73,7.1-15.83,15.83-15.83s15.83,7.1,15.83,15.83c0,5.5-2.8,10.52-7.4,13.4,8.61,3.21,14.64,11,15.52,20.22.06.66-.16,1.31-.6,1.8Z"/>
    </g>
  </g>
</svg>