<?xml version="1.0" encoding="UTF-8"?>
<svg id="Layer_2" data-name="Layer 2" xmlns="http://www.w3.org/2000/svg" viewBox="0 0 75.14 75.14">
  <defs>
    <style>
      .cls-1 {
        fill: #1b425d;
      }
    </style>
  </defs>
  <g id="Layer_1-2" data-name="Layer 1">
    <g>
      <path class="cls-1" d="m26.73,26.49c.51.52,1.55,1.38,2.67,1.17,1.14-.2,1.81-1.35,2.11-2.01.63-1.4.81-3.27.48-5.11-.32-1.84-1.13-3.53-2.2-4.64-.46-.47-1.33-1.2-2.32-1.2-.11,0-.23,0-.34.03-1.14.2-1.81,1.35-2.11,2.01-.63,1.41-.81,3.27-.48,5.11.32,1.84,1.13,3.53,2.2,4.64Z"/>
      <path class="cls-1" d="m45.41,27.66c1.78.32,4.19-2,4.87-5.81.33-1.84.15-3.71-.48-5.11-.3-.67-.97-1.81-2.11-2.01-.12-.02-.23-.03-.34-.03-1,0-1.87.73-2.32,1.2-1.07,1.1-1.88,2.79-2.2,4.64-.33,1.84-.15,3.71.48,5.11.3.67.97,1.81,2.11,2.01Z"/>
      <path class="cls-1" d="m50.11,49.1c-.48-.4-1.01-.83-1.6-1.33-1.52-1.29-2.42-3.07-3.3-4.78-1.62-3.17-2.89-5.68-7.58-5.68s-5.96,2.51-7.58,5.68c-.87,1.71-1.77,3.49-3.3,4.78-.58.5-1.11.93-1.6,1.33-2.75,2.26-3.24,2.66-3.24,5.29,0,1.58.39,2.74,1.18,3.53,1.26,1.25,3.45,1.53,5.1,1.5,1.3,0,2.69-.27,4.15-.55,1.68-.32,3.42-.65,5.28-.65s3.6.33,5.28.65c1.46.28,2.85.54,4.15.55,1.61.02,3.84-.24,5.1-1.5.8-.79,1.18-1.95,1.18-3.53,0-2.63-.5-3.04-3.24-5.29Z"/>
      <path class="cls-1" d="m18.74,34.38c-.43-1.6-1.26-3.02-2.29-3.91-.4-.34-1.12-.86-1.89-.86-.14,0-.28.02-.42.05-1.47.4-2.5,3.11-1.63,6.38.88,3.27,3.12,5.1,4.6,4.71,1.47-.39,2.48-3.21,1.63-6.38Z"/>
      <path class="cls-1" d="m61,29.66c-.14-.04-.28-.05-.42-.05-.77,0-1.5.52-1.89.86-1.02.89-1.86,2.31-2.29,3.91-.43,1.6-.42,3.25.03,4.53.2.59.68,1.61,1.6,1.85,1.47.39,3.75-1.54,4.6-4.71s-.16-5.99-1.63-6.38Z"/>
      <path class="cls-1" d="m72.31,0H2.83C1.27,0,0,1.27,0,2.83v69.47c0,1.57,1.27,2.83,2.83,2.83h69.47c1.57,0,2.83-1.27,2.83-2.83V2.83c0-1.57-1.27-2.83-2.83-2.83Zm-33.62,19.8c.47-2.69,1.65-5.12,3.32-6.83,1.85-1.91,4.19-2.77,6.41-2.38,2.22.39,4.12,2.01,5.21,4.43.98,2.19,1.26,4.87.79,7.56-.96,5.45-4.64,9.31-8.64,9.31-.36,0-.72-.03-1.09-.1-2.22-.39-4.12-2.01-5.21-4.43-.98-2.19-1.26-4.87-.79-7.56Zm-17.51-4.79c1.09-2.42,2.99-4.04,5.21-4.43,2.22-.39,4.56.48,6.41,2.38,1.67,1.72,2.85,4.15,3.32,6.83.47,2.69.2,5.37-.79,7.56-1.09,2.42-2.99,4.04-5.21,4.43-.35.06-.7.09-1.06.09-1.89,0-3.79-.87-5.35-2.47-1.67-1.72-2.85-4.15-3.32-6.83-.47-2.69-.2-5.37.79-7.56Zm-12.72,22.12c-1.44-5.39.58-10.45,4.6-11.53,2.04-.55,4.28.07,6.15,1.68,1.67,1.44,2.95,3.57,3.6,6,1.44,5.39-.58,10.45-4.6,11.53-.5.13-1.01.2-1.52.2-3.53,0-6.97-3.17-8.23-7.88Zm46.68,23.77c-1.82,1.81-4.5,2.72-7.98,2.72h-.1c-1.69,0-3.33-.32-4.91-.62-1.56-.3-3.03-.58-4.49-.58s-2.93.28-4.49.58c-1.59.3-3.23.61-4.91.62h-.1c-3.48,0-6.17-.92-7.98-2.72-1.61-1.6-2.42-3.79-2.42-6.51,0-4.62,1.8-6.09,4.78-8.54.47-.38.98-.8,1.54-1.28.88-.75,1.56-2.08,2.28-3.49,1.71-3.36,4.06-7.97,11.32-7.97s9.61,4.61,11.32,7.97c.72,1.41,1.39,2.74,2.28,3.49.56.48,1.07.9,1.54,1.28,2.98,2.45,4.78,3.92,4.78,8.54,0,2.72-.81,4.91-2.42,6.51Zm11.55-23.77c-1.26,4.71-4.7,7.88-8.23,7.88-.51,0-1.01-.06-1.52-.2-2.04-.55-3.67-2.2-4.48-4.53-.72-2.08-.77-4.57-.12-6.99.65-2.43,1.93-4.56,3.6-6,1.87-1.62,4.11-2.23,6.15-1.68,4.02,1.08,6.04,6.14,4.6,11.53Z"/>
    </g>
  </g>
</svg>