<?xml version="1.0" encoding="UTF-8"?>
<svg id="Layer_2" data-name="Layer 2" xmlns="http://www.w3.org/2000/svg" viewBox="0 0 75.14 75.14">
  <defs>
    <style>
      .cls-1 {
        fill: #1b425d;
      }
    </style>
  </defs>
  <g id="Layer_1-2" data-name="Layer 1">
    <path class="cls-1" d="m72.31,0H2.83C1.27,0,0,1.27,0,2.83v69.47c0,1.57,1.27,2.83,2.83,2.83h69.47c1.57,0,2.83-1.27,2.83-2.83V2.83c0-1.57-1.27-2.83-2.83-2.83ZM28.53,60.72l-10.51,2.73c-1.41.37-2.28-.09-2.61-1.35-.29-1.13.04-2.14.45-3.32l4.41-12.76-6.59,1.71c-1.23.32-2.02-.23-2.38-1.61-.36-1.38.08-2.21,1.31-2.53l10.17-2.64c1.41-.37,2.28.1,2.61,1.35.29,1.13-.04,2.13-.45,3.32l-4.41,12.76,6.93-1.8c1.23-.32,2.01.2,2.37,1.58s-.07,2.24-1.3,2.56Zm13.7-16.33h-10.86c-1.46,0-2.18-.67-2.18-1.96,0-1.17.57-2.06,1.27-3.1l7.47-11.24h-6.81c-1.27,0-1.9-.73-1.9-2.15s.63-2.12,1.9-2.12h10.51c1.46,0,2.18.67,2.18,1.96,0,1.17-.57,2.06-1.27,3.1l-7.47,11.24h7.16c1.27,0,1.9.7,1.9,2.12s-.63,2.15-1.9,2.15Zm21.72-29.44c-.13,1.16-.8,1.98-1.61,2.94l-8.69,10.33,7.11.8c1.26.14,1.81.91,1.65,2.32-.16,1.42-.87,2.07-2.13,1.93l-10.79-1.22c-1.45-.16-2.1-.91-1.95-2.2.13-1.16.8-1.98,1.61-2.94l8.69-10.33-6.76-.76c-1.26-.14-1.81-.94-1.65-2.35.16-1.42.87-2.04,2.13-1.89l10.45,1.18c1.45.16,2.1.91,1.95,2.2Z"/>
  </g>
</svg>